<svg xmlns="http://www.w3.org/2000/svg" style="display:none" aria-hidden="true">

  <!-- House pictograms (LEG3ND originals) -->
  <symbol id="p-arrow" viewBox="0 0 48 48"><path d="M4 19 h22 v-8 l16 13 -16 13 v-8 H4 Z" fill="currentColor"></path></symbol>
  <symbol id="p-firstaid" viewBox="0 0 48 48"><path d="M19 6 h10 v13 h13 v10 h-13 v13 h-10 v-13 H6 v-10 h13 Z" fill="currentColor"></path></symbol>
  <symbol id="p-info" viewBox="0 0 48 48"><circle cx="24" cy="11" r="3.8" fill="currentColor"></circle><rect x="20.5" y="18" width="7" height="21" rx="2.6" fill="currentColor"></rect></symbol>
  <symbol id="p-noentry" viewBox="0 0 48 48"><circle cx="24" cy="24" r="18.5" fill="none" stroke="currentColor" stroke-width="5"></circle><rect x="11" y="21" width="26" height="6" rx="1.4" fill="currentColor"></rect></symbol>
  <symbol id="p-warning" viewBox="0 0 48 48"><rect x="21" y="9" width="6" height="20" rx="2.6" fill="currentColor"></rect><circle cx="24" cy="37" r="3.7" fill="currentColor"></circle></symbol>
  <symbol id="p-fire" viewBox="0 0 48 48"><path d="M26 5 c1 7 8 9 8 18 a10 10 0 0 1 -20 0 c0 -5 2 -7 4 -10 c0.5 2.5 2 3.5 3 4 c-1.5 -4 0 -8 5 -12 Z" fill="currentColor"></path></symbol>
  <symbol id="p-elevator" viewBox="0 0 48 48"><rect x="9" y="6" width="30" height="36" rx="3.5" fill="none" stroke="currentColor" stroke-width="3.5"></rect><path d="M24 13 l5.5 8 h-11 Z" fill="currentColor"></path><path d="M24 35 l-5.5 -8 h11 Z" fill="currentColor"></path></symbol>
  <symbol id="p-restroom" viewBox="0 0 48 48"><circle cx="16" cy="10" r="4.4" fill="currentColor"></circle><rect x="11.6" y="16" width="8.8" height="13.5" rx="3.4" fill="currentColor"></rect><rect x="12.6" y="28" width="3" height="11" rx="1.5" fill="currentColor"></rect><rect x="16.8" y="28" width="3" height="11" rx="1.5" fill="currentColor"></rect><circle cx="32" cy="10" r="4.4" fill="currentColor"></circle><path d="M32 15 l6.2 15 h-12.4 Z" fill="currentColor"></path><rect x="29.2" y="29" width="2.8" height="10" rx="1.4" fill="currentColor"></rect><rect x="33" y="29" width="2.8" height="10" rx="1.4" fill="currentColor"></rect></symbol>
  <symbol id="p-access" viewBox="0 0 48 48"><circle cx="20" cy="9" r="4.2" fill="currentColor"></circle><path d="M17.5 15 l1.5 9 9 0" fill="none" stroke="currentColor" stroke-width="3.6" stroke-linecap="round" stroke-linejoin="round"></path><circle cx="23" cy="31" r="9.2" fill="none" stroke="currentColor" stroke-width="3.2"></circle></symbol>
  <symbol id="p-exit" viewBox="0 0 48 48"><circle cx="12" cy="9" r="4" fill="currentColor"></circle><rect x="7.8" y="15" width="8.4" height="13" rx="3.2" fill="currentColor"></rect><rect x="8.6" y="27" width="3" height="11" rx="1.5" fill="currentColor"></rect><rect x="12.8" y="27" width="3" height="11" rx="1.5" fill="currentColor"></rect><path d="M26 24 h12 m-5 -5 l5 5 -5 5" fill="none" stroke="currentColor" stroke-width="3.4" stroke-linecap="round" stroke-linejoin="round"></path></symbol>

  <!-- AIGA / U.S. DOT Symbol Signs (public domain) — 60 wayfinding pictograms,
       scaled+centered into a uniform 48×48 box, #000→currentColor for tinting. -->
  <symbol id="aiga-telephone" viewBox="0 0 48 48"><g transform="translate(15.2826 0.0021) scale(0.1002)"><path transform="matrix(.1,0,0,-.1,0,479)" d="M1099.25 4775.25C875 4750 61.2344 4378.07 37.25 2460.25 12.5 440 875 15 1101.25 19.25V1354.25C915 1353.94 877.543 1556.68 835.25 1975.25 806.852 2251.79 798.641 2594.43 835.25 2935.25 860.52 3173.97 905 3407.23 1100.25 3407.25L1099.25 4775.25"></path>
<path transform="matrix(.1,0,0,-.1,0,479)" d="M1581.25 17.25C1667.5 17.2305 1729.36 87.5 1729.25 166.25L1730.25 167.25C1730.25 167.25 1729.36 1206.87 1729.25 1207.25 1729.36 1290 1662.5 1355.04 1581.25 1355.25H1203.25V17.25C1203.25 17.25 1580.32 16.6484 1580.25 17.25H1581.25"></path>
<path transform="matrix(.1,0,0,-.1,0,479)" d="M1581.25 3407.25C1667.5 3407.23 1729.36 3477.5 1729.25 3556.25L1730.25 3557.25C1730.25 3557.25 1729.36 4626.87 1729.25 4627.25 1729.36 4710 1662.5 4775.04 1581.25 4775.25H1203.25V3407.25C1203.25 3407.25 1580.32 3406.65 1580.25 3407.25H1581.25"></path></g></symbol>
  <symbol id="aiga-mail" viewBox="0 0 48 48"><g transform="translate(-0.0171 3.5955) scale(0.0669)"><path transform="matrix(.1,0,0,-.1,0,610)" stroke-width="306.55" stroke-linecap="butt" stroke-miterlimit="10" stroke-linejoin="miter" fill="none" stroke="currentColor" d="M5633.25 1546.25V4554.25H1546.25V1546.25H5633.25Z"></path>
<path transform="matrix(.1,0,0,-.1,0,610)" stroke-width="306.55" stroke-linecap="butt" stroke-miterlimit="10" stroke-linejoin="miter" fill="none" stroke="currentColor" d="M1584.25 4516.25 3347.25 2729.25C3478.34 2597.38 3716.15 2598.94 3844.25 2728.25L5606.25 4501.25"></path>
<path transform="matrix(.1,0,0,-.1,0,610)" stroke-width="306.55" stroke-linecap="butt" stroke-miterlimit="10" stroke-linejoin="miter" fill="none" stroke="currentColor" d="M1645.25 1645.25 2996.25 3026.25"></path>
<path transform="matrix(.1,0,0,-.1,0,610)" stroke-width="306.55" stroke-linecap="butt" stroke-miterlimit="10" stroke-linejoin="miter" fill="none" stroke="currentColor" d="M5519.25 1661.25 4205.25 3007.25"></path></g></symbol>
  <symbol id="aiga-currency-exchange" viewBox="0 0 48 48"><g transform="translate(0.017 6.107) scale(0.058)"><path transform="matrix(.1,0,0,-.1,0,617)" stroke-width="420" stroke-linecap="butt" stroke-miterlimit="10" stroke-linejoin="miter" fill="none" stroke="currentColor" d="M6152.87 2262.2V4051.21H2116.07V2262.2H6152.87Z"></path>
<path transform="matrix(.1,0,0,-.1,0,617)" d="M4149.76 2580.78C4464.12 2580.78 4718.98 2835.64 4718.98 3150 4718.98 3464.36 4464.12 3719.22 4149.76 3719.22 3835.4 3719.22 3580.54 3464.36 3580.54 3150 3580.54 2835.64 3835.4 2580.78 4149.76 2580.78"></path>
<path transform="matrix(.1,0,0,-.1,0,617)" stroke-width="18.59" stroke-linecap="butt" stroke-miterlimit="10" stroke-linejoin="miter" fill="none" stroke="currentColor" d="M4149.76 2580.78C4464.12 2580.78 4718.98 2835.64 4718.98 3150 4718.98 3464.36 4464.12 3719.22 4149.76 3719.22 3835.4 3719.22 3580.54 3464.36 3580.54 3150 3580.54 2835.64 3835.4 2580.78 4149.76 2580.78Z"></path>
<path transform="matrix(.1,0,0,-.1,0,617)" d="M3840.35 3049.13H3989C3998.41 3006.24 4010.79 2954.37 4078.5 2935.12L4078.32 3103.61C3985.59 3116.94 3851.82 3157.6 3851.82 3306.73 3851.82 3474.37 4037.29 3526.64 4078.5 3526.64V3628.01H4218.3V3526.64C4312.57 3521.18 4449.39 3442.38 4449.39 3292.58H4302.2C4298.46 3337.05 4263.99 3380.74 4219.77 3383.86V3229.38C4332.15 3217.85 4464.11 3174.96 4464.11 3023.96 4464.11 2892.11 4331.64 2795.95 4219.77 2790.03V2688.41H4078.5V2791.51C3997.55 2803.35 3849.54 2881.4 3840.35 3049.13" fill="#ffffff"></path>
<path transform="matrix(.1,0,0,-.1,0,617)" d="M4079.23 3382.33V3254.34C3979.6 3255.9 3977.66 3364.57 4079.23 3382.33"></path>
<path transform="matrix(.1,0,0,-.1,0,617)" d="M4221.41 3079.58C4344.69 3076.46 4358.41 2953.97 4221.27 2934.38"></path>
<path transform="matrix(.1,0,0,-.1,0,617)" d="M4221.27 2934.38 4221.41 3079.58"></path>
<path transform="matrix(.1,0,0,-.1,0,617)" d="M5082.5 1588.28C5396.86 1588.28 5651.72 1843.14 5651.72 2157.5 5651.72 2471.87 5396.86 2726.73 5082.5 2726.73 4768.13 2726.73 4513.27 2471.87 4513.27 2157.5 4513.27 1843.14 4768.13 1588.28 5082.5 1588.28"></path>
<path transform="matrix(.1,0,0,-.1,0,617)" stroke-width="18.59" stroke-linecap="butt" stroke-miterlimit="10" stroke-linejoin="miter" fill="none" stroke="currentColor" d="M5082.5 1588.28C5396.86 1588.28 5651.72 1843.14 5651.72 2157.5 5651.72 2471.87 5396.86 2726.73 5082.5 2726.73 4768.13 2726.73 4513.27 2471.87 4513.27 2157.5 4513.27 1843.14 4768.13 1588.28 5082.5 1588.28Z"></path>
<path transform="matrix(.1,0,0,-.1,0,617)" d="M5345.45 1930.02V1807.31H4818.27V1930.02C4878.17 1970.14 4909.33 2071.61 4890.16 2125.9H4779.93V2250.96H4868.58C4844.62 2307.59 4844.62 2326.47 4844.62 2376.03 4844.62 2425.58 4885.37 2587.16 5098.62 2586.04 5295 2585 5352 2423.2 5352 2307.59L5202.5 2307.5C5192.5 2377.5 5165 2435 5100 2435 5000.56 2435 5000.39 2372.49 5000.39 2351.24 5000.39 2330.01 5003.97 2278.1 5024.35 2249.77H5153.75V2127.07H5048.31C5061.48 2014.97 4996.79 1967.78 4993.19 1930.02H5345.45" fill="#ffffff"></path>
<path transform="matrix(.1,0,0,-.1,0,617)" d="M4702.5 108.281C5016.86 108.281 5271.72 363.141 5271.72 677.5 5271.72 991.871 5016.86 1246.73 4702.5 1246.73 4388.13 1246.73 4133.28 991.871 4133.28 677.5 4133.28 363.141 4388.13 108.281 4702.5 108.281"></path>
<path transform="matrix(.1,0,0,-.1,0,617)" stroke-width="18.59" stroke-linecap="butt" stroke-miterlimit="10" stroke-linejoin="miter" fill="none" stroke="currentColor" d="M4702.5 108.281C5016.86 108.281 5271.72 363.141 5271.72 677.5 5271.72 991.871 5016.86 1246.73 4702.5 1246.73 4388.13 1246.73 4133.28 991.871 4133.28 677.5 4133.28 363.141 4388.13 108.281 4702.5 108.281Z"></path>
<path transform="matrix(.1,0,0,-.1,0,617)" d="M4382.58 1026.59H4547.93L4701.29 755.922 4867.69 1026.59H5019.98L4773.18 590.109H4957.68V451.129H4780.36V256.051H4629.4V451.129H4440.09V587.68H4631.79L4382.58 1026.59" fill="#ffffff"></path>
<path transform="matrix(.1,0,0,-.1,0,617)" d="M2907.5 753.281C3221.87 753.281 3476.73 1008.14 3476.73 1322.5 3476.73 1636.87 3221.87 1891.73 2907.5 1891.73 2593.14 1891.73 2338.28 1636.87 2338.28 1322.5 2338.28 1008.14 2593.14 753.281 2907.5 753.281"></path>
<path transform="matrix(.1,0,0,-.1,0,617)" stroke-width="18.59" stroke-linecap="butt" stroke-miterlimit="10" stroke-linejoin="miter" fill="none" stroke="currentColor" d="M2907.5 753.281C3221.87 753.281 3476.73 1008.14 3476.73 1322.5 3476.73 1636.87 3221.87 1891.73 2907.5 1891.73 2593.14 1891.73 2338.28 1636.87 2338.28 1322.5 2338.28 1008.14 2593.14 753.281 2907.5 753.281Z"></path>
<path transform="matrix(.1,0,0,-.1,0,617)" d="M2964.65 1431.06H3108.43V1359.17C3139.59 1395.13 3175.52 1433.47 3252.2 1433.47V1296.87C3135 1282.5 3108.43 1220 3108.43 1142.5V970.98H2964.65V1431.06" fill="#ffffff"></path>
<path transform="matrix(.1,0,0,-.1,0,617)" d="M2925.59 1431.06V1295.68H2823.38V970.98H2678.41V1294.48H2592.15V1429.87H2678.41V1550.87C2678.41 1597.6 2723.93 1740.19 2895.26 1740.19 3070.18 1740.19 3107.5 1602.5 3107.5 1487.38H2965C2965 1561.25 2955 1600.01 2896.45 1600.01 2833.75 1600.01 2823.38 1556.88 2823.38 1488.57V1431.06H2925.59" fill="#ffffff"></path></g></symbol>
  <symbol id="aiga-cashier" viewBox="0 0 48 48"><g transform="translate(-0.0116 0.015) scale(0.0533)"><path transform="matrix(.1,0,0,-.1,0,900)" stroke-width="507.159" stroke-linecap="butt" stroke-miterlimit="10" stroke-linejoin="miter" fill="none" stroke="currentColor" d="M4505.25 2547.25C3426.66 2547.47 2552.47 3421.66 2552.25 4500.25 2552.47 5578.38 3426.66 6452.56 4505.25 6452.25 5583.38 6452.56 6457.56 5578.38 6457.25 4500.25 6457.56 3421.66 5583.38 2547.47 4505.25 2547.25Z"></path>
<path transform="matrix(.1,0,0,-.1,0,900)" d="M3485.25 4157.25H3960.25C3990 4020 4029.5 3853.79 4245.25 3792.25V4332.25C3949.11 4374.69 3522.26 4505 3522.25 4983.25 3522.26 5520 4114.04 5687.5 4245.25 5687.25V6012.25H4691.25V5687.25C4992.5 5670 5429.08 5417.5 5429.25 4937.25H4959.25C4947.5 5080 4837.5 5220 4696.25 5230.25V4735.25C5055 4698.07 5476.04 4560.63 5476.25 4077.25 5476.04 3654.29 5053.35 3346.18 4696.25 3327.25V3001.25H4245.25V3332.25C3987.23 3369.91 3515 3620 3485.25 4157.25"></path>
<path transform="matrix(.1,0,0,-.1,0,900)" d="M4248.25 5225.25V4815.25C3930 4820 3923.82 5168.17 4248.25 5225.25" fill="#ffffff"></path>
<path transform="matrix(.1,0,0,-.1,0,900)" d="M4701.25 4255.25C5095 4245 5138.75 3852.5 4701.25 3789.25" fill="#ffffff"></path>
<path transform="matrix(.1,0,0,-.1,0,900)" d="M4701.25 3789.25V4255.25" fill="#ffffff"></path></g></symbol>
  <symbol id="aiga-first-aid" viewBox="0 0 48 48"><g transform="translate(0.0087 0.0087) scale(0.1311)"><path transform="matrix(.1,0,0,-.1,0,366)" d="M1197.59 3644.58H2457.15V2458.13H3643.19V1202.51H2466.74V18.1406H1202.39V1202.51H16.3398V2458.13H1197.59V3644.58"></path></g></symbol>
  <symbol id="aiga-lost-and-found" viewBox="0 0 48 48"><g transform="translate(-0.0051 1.1541) scale(0.0966)"><path transform="matrix(.1,0,0,-.1,0,473)" d="M1754.25 4026.25H2050.25C2050.45 4143.29 2021.98 4400.9 2332.25 4401.25 2567.6 4400.9 2555.25 4201.25 2555.25 4201.25 2555.25 4201.25 2565.21 4066.61 2366.25 3968.25 2185.77 3879.51 2169.07 3755.1 2169.25 3700.25V3355.25H2468.25V3578.25C2467.95 3661.66 2527.25 3707.17 2660.25 3803.25 2792.95 3898.87 2880.73 3989.93 2880.25 4196.25 2880.73 4402.09 2676.71 4713.6 2304.25 4713.25 2304.25 4713.25 2048.09 4715.99 1901.25 4531.25 1753.92 4346.96 1746.79 4239.14 1754.25 4026.25"></path>
<path transform="matrix(.1,0,0,-.1,0,473)" d="M2465.25 3247.25H2169.25V2935.25H2465.25V3247.25"></path>
<path transform="matrix(.1,0,0,-.1,0,473)" d="M4386.25 1310.25C4820.6 1310.59 4950.43 1666.44 4950.25 1870.25 4950.43 2126.66 4730.9 2397.1 4433.25 2397.25H3742.25V2995.25L649.25 2340.25V2169.25L3742.25 1552.25V2122.25C3742.25 2122.25 4405 2121.92 4407.25 2122.25 4563.31 2121.92 4676.61 1960.6 4676.25 1861.25 4676.61 1735 4601.05 1592.5 4407.25 1592.25 4407.25 1592.25 4190.37 1614.25 4190.25 1457.25 4190.37 1301.1 4355.6 1310.59 4386.25 1310.25"></path>
<path transform="matrix(.1,0,0,-.1,0,473)" d="M566.25 2321.25V2189.25H120.25C21.0586 2189.4 17.5 2320 120.25 2321.25 122.754 2321.22 566.25 2321.25 566.25 2321.25"></path>
<path transform="matrix(.1,0,0,-.1,0,473)" d="M3446.25 725.25C3446.25 725.25 3575.73 725.043 3613.25 725.25 3650.88 725.043 3728.38 689.805 3728.25 619.25V11.25L3362.25 117.25C3362.25 117.25 1363.38 117.281 1257.25 117.25 1152 117.281 1109.97 205.199 1110.25 252.25 1109.97 299.141 1147.31 387.852 1257.25 388.25H2317.25V450.25C2317.25 450.25 1363.38 450.695 1257.25 450.25 1152 450.695 1109.97 539.191 1110.25 586.25 1109.97 633.094 1147.31 719.227 1257.25 719.25H2317.25V777.25C2317.25 777.25 1363.38 776.848 1257.25 777.25 1152 776.848 1109.97 862.734 1110.25 909.25 1109.97 956.668 1147.31 1050.75 1257.25 1051.25H2317.25V1107.25H1257.25C1151.41 1107.5 1109.97 1201.93 1110.25 1249.25 1109.97 1295.86 1146.72 1386.67 1257.25 1386.25H2142.25L1845.25 1469.25C1769.7 1494.7 1731.38 1562.49 1752.25 1640.25 1773.65 1717.48 1837.5 1750 1946.25 1729.25L3728.25 1384.25V1038.25C3728.38 955.621 3672.02 901.621 3611.25 901.25H3446.25C3340.87 901.621 3340.87 725.043 3446.25 725.25"></path></g></symbol>
  <symbol id="aiga-coat-check" viewBox="0 0 48 48"><g transform="translate(0.0031 6.8526) scale(0.1024)"><path transform="matrix(.1,0,0,-.1,0,334.91)" d="M205.777 832.527C8.89063 716.363-26.6406 469.043 16.0586 318.988 57.4766 173.473 203.48 0 466.211 0H466.797C466.797 0 3854.4 0 4196.01 0 4490.18 0 4624.32 168.633 4665.73 314.148 4708.43 464.199 4708.43 696.543 4480.69 836.91L2505.78 2002.53V2200.99C2505.78 2426.07 2260.24 2523.78 2260.24 2523.78 2101.31 2601.23 2115.54 2768.21 2115.54 2768.21 2115.54 2964.23 2291.09 3027.16 2369.35 3027.16 2500.78 3027.16 2629.67 2954.28 2643.27 2787.57 2664.63 2526.19 2960.78 2592.53 2960.78 2802.53 2960.78 3000.97 2779.77 3349.05 2366.99 3349.05 1920.78 3349.05 1792.62 2912.76 1792.62 2774.81 1792.62 2670.76 1809.07 2574.68 1873.28 2465.03 1982.4 2278.68 2200.78 2249.39 2200.78 2125.97V2002.53L205.777 832.527"></path>
<path transform="matrix(.1,0,0,-.1,0,334.91)" d="M2340.9 1703.31 4275.78 572.527C4395.78 487.527 4330.78 327.527 4200.78 327.262H472.129C350.777 322.527 275.777 492.527 395.777 567.527L2340.9 1703.31" fill="#ffffff"></path></g></symbol>
  <symbol id="aiga-baggage-lockers" viewBox="0 0 48 48"><g transform="translate(5.0321 -0.0002) scale(0.1106)"><path transform="matrix(.1,0,0,-.1,0,434)" d="M3412.31 11.2305V2949.13H10V11.2305H3412.31"></path>
<path transform="matrix(.1,0,0,-.1,0,434)" d="M2998.8 443.398V2555.38H407.648V443.398H2998.8" fill="#ffffff"></path>
<path transform="matrix(.1,0,0,-.1,0,434)" d="M1140.22 2070.9H1415.44V2264.41C1415.44 2336.58 1479.76 2382.37 1556.34 2382.37 1555.36 2382.37 1850.02 2382.37 1850.02 2382.37 1926.6 2382.37 1989.84 2336.58 1989.84 2264.41V2070.9H2267.47V692.73H1140.22V2070.9"></path>
<path transform="matrix(.1,0,0,-.1,0,434)" d="M1036.87 695.129H885.672C781.43 695.129 680.262 772.211 680.262 906.211 680.262 906.211 680.262 1861.15 680.262 1863.59 680.262 1982.97 779 2073.3 885.672 2073.3H1036.87V695.129"></path>
<path transform="matrix(.1,0,0,-.1,0,434)" d="M2368.39 695.129H2519.59C2623.82 695.129 2724.99 772.211 2724.99 906.211 2724.99 906.211 2724.99 1861.15 2724.99 1863.59 2724.99 1982.97 2626.25 2073.3 2519.59 2073.3H2368.39V695.129"></path>
<path transform="matrix(.1,0,0,-.1,0,434)" d="M1885.18 2070.9V2270.53H1516.61V2070.9H1885.18" fill="#ffffff"></path>
<path transform="matrix(.1,0,0,-.1,0,434)" d="M1058.78 3141.97C1386.32 3141.97 1651.8 3407.49 1651.8 3735.02 1651.8 4062.53 1386.32 4328.03 1058.78 4328.03 731.25 4328.03 465.75 4062.53 465.75 3735.02 465.75 3407.49 731.25 3141.97 1058.78 3141.97"></path>
<path transform="matrix(.1,0,0,-.1,0,434)" d="M2712.09 3486.58 2564.27 3636.34 2419.98 3490.18 2278.07 3633.96 2136.16 3490.18 1994.25 3633.96 1809.76 3447.06H1462.08V4029.33H2762.96L2962.82 3826.85C2994.13 3795.09 2992.38 3768.15 2963.99 3739.39L2715.65 3487.78"></path>
<path transform="matrix(.1,0,0,-.1,0,434)" d="M799.57 3584.9C887.539 3584.9 958.832 3656.22 958.832 3744.19 958.832 3832.13 887.539 3903.45 799.57 3903.45 711.602 3903.45 640.289 3832.13 640.289 3744.19 640.289 3656.22 711.602 3584.9 799.57 3584.9" fill="#ffffff"></path>
<path transform="matrix(.1,0,0,-.1,0,434)" stroke-width="2.38" stroke-linecap="butt" stroke-miterlimit="10" stroke-linejoin="miter" fill="none" stroke="currentColor" d="M799.57 3584.9C887.539 3584.9 958.832 3656.22 958.832 3744.19 958.832 3832.13 887.539 3903.45 799.57 3903.45 711.602 3903.45 640.289 3832.13 640.289 3744.19 640.289 3656.22 711.602 3584.9 799.57 3584.9Z"></path></g></symbol>
  <symbol id="aiga-escalator" viewBox="0 0 48 48"><g transform="translate(-0.0038 5.3667) scale(0.0934)"><path transform="matrix(.1,0,0,-.1,0,399)" d="M2179.25 3298.25C2366.74 3298.23 2518.46 3449.97 2518.25 3637.25 2518.46 3824.28 2366.74 3976 2179.25 3976.25 1992.43 3976 1840.71 3824.28 1840.25 3637.25 1840.71 3449.97 1992.43 3298.23 2179.25 3298.25"></path>
<path transform="matrix(.1,0,0,-.1,0,399)" d="M2515.25 2688.25V2901.25C2515.07 3356.74 1844.12 3351.74 1844.25 2901.25V2030.25H1845.25L1211.25 1396.25C1151.72 1336.95 1144.43 1334.35 1027.25 1334.25 1026.91 1334.25 639.25 1334.25 639.25 1334.25 249.43 1334.35 15.5703 983.871 15.25 686.25 15.5703 389.609 249.43 14 674.25 14.25 674.25 14.25 1201.49 14 1364.25 14.25 1527.38 14 1724.91 76.2891 1888.25 229.25L3909.25 2245.25C3952.37 2283.25 3976.33 2295.22 4050.25 2295.25 4050.25 2295.25 4329.29 2295.22 4550.25 2295.25 4790 2295.22 5130 2567.5 5130.25 2960.25 5130 3348.49 4787.5 3607.5 4530.25 3608.25H3742.25C3578.99 3608.36 3369.43 3541.74 3244.25 3416.25L2515.25 2688.25"></path>
<path transform="matrix(.1,0,0,-.1,0,399)" d="M3790.25 3273.25H4499.25C4671.44 3272.89 4787.5 3080.02 4787.25 2965.25 4787.5 2849.98 4705.16 2635.31 4494.25 2635.25H4068.25C3887.5 2635.31 3807.5 2610 3703.25 2506.25L1667.25 469.25C1584.43 386.742 1479.89 354.07 1345.25 354.25H674.25C501.488 354.07 349.43 500.039 349.25 691.25 349.43 883.441 494.43 990.852 644.25 991.25H1105.25C1239.43 990.852 1327.75 1029.19 1404.25 1106.25L3475.25 3177.25C3560.83 3262.24 3645.02 3272.89 3790.25 3273.25" fill="#ffffff"></path></g></symbol>
  <symbol id="aiga-escalator-down" viewBox="0 0 48 48"><g transform="translate(-0.0038 5.2266) scale(0.0934)"><path transform="matrix(.1,0,0,-.1,0,402)" d="M2179.59 3328.23C2366.74 3328.23 2518.46 3479.97 2518.46 3667.11 2518.46 3854.28 2366.74 4006 2179.59 4006 1992.43 4006 1840.71 3854.28 1840.71 3667.11 1840.71 3479.97 1992.43 3328.23 2179.59 3328.23"></path>
<path transform="matrix(.1,0,0,-.1,0,402)" d="M2515.07 2718.21V2931.74C2515.07 3386.74 1844.12 3381.74 1844.12 2931.74V2060.65H1845.44L1211.51 1426.74C1151.72 1366.95 1144.43 1364.35 1027.01 1364.35 1026.91 1364.25 639.43 1364.35 639.43 1364.35 249.43 1364.35 15.5703 1013.87 15.5703 716.738 15.5703 419.609 249.43 44 674.02 44 674.02 44 1201.49 44 1364.43 44 1527.38 44 1724.91 106.289 1887.86 259.648L3909.23 2274.91C3952.37 2313.25 3976.33 2325.22 4050.62 2325.22 4050.62 2325.22 4329.29 2325.22 4549.75 2325.22 4790 2325.22 5130 2597.5 5130 2990 5130 3378.49 4787.5 3637.5 4530 3638.36H3741.93C3578.99 3638.36 3369.43 3571.74 3244.43 3446.74L2515.05 2718.21H2515.07"></path>
<path transform="matrix(.1,0,0,-.1,0,402)" d="M3067.18 12.75H3775.11C3970.11 12.75 3977.61 312.75 3775.11 312.75H3412.24L4102.36 1002.87C4255.35 1155.87 4038.97 1377.25 3876.43 1214.72L3196.58 532.988V892.148C3197.61 1087.15 2895.11 1094.65 2894.65 892.148V188.609C2894.65 83.6094 2965.11 12.75 3067.18 12.75"></path>
<path transform="matrix(.1,0,0,-.1,0,402)" d="M3789.86 3302.89H4498.91C4671.44 3302.89 4787.5 3110.02 4787.5 2995 4787.5 2879.98 4705.16 2665.31 4494.29 2665.31H4068C3887.5 2665.31 3807.5 2640 3703.59 2536.09L1666.79 499.289C1584.43 416.738 1479.89 384.07 1345.7 384.07H674.02C501.488 384.07 349.43 530.039 349.43 721.738 349.43 913.441 494.43 1020.85 644.43 1020.85H1105.24C1239.43 1020.85 1327.75 1059.19 1404.43 1135.87L3475.61 3207.04C3560.83 3292.24 3645.02 3302.89 3789.86 3302.89" fill="#ffffff"></path></g></symbol>
  <symbol id="aiga-escalator-up" viewBox="0 0 48 48"><g transform="translate(-0.0038 4.7596) scale(0.0934)"><path transform="matrix(.1,0,0,-.1,0,412)" d="M2179.59 3428.23C2366.74 3428.23 2518.46 3579.97 2518.46 3767.11 2518.46 3954.28 2366.74 4106 2179.59 4106 1992.43 4106 1840.71 3954.28 1840.71 3767.11 1840.71 3579.97 1992.43 3428.23 2179.59 3428.23"></path>
<path transform="matrix(.1,0,0,-.1,0,412)" d="M2515.07 2818.21V3031.74C2515.07 3486.74 1844.12 3481.74 1844.12 3031.74V2160.65H1845.44L1211.51 1526.74C1151.72 1466.95 1144.43 1464.35 1027.01 1464.35 1026.91 1464.25 639.43 1464.35 639.43 1464.35 249.43 1464.35 15.5703 1113.87 15.5703 816.738 15.5703 519.609 249.43 144 674.02 144 674.02 144 1201.49 144 1364.43 144 1527.38 144 1724.91 206.289 1887.86 359.648L3909.23 2374.91C3952.37 2413.25 3976.33 2425.22 4050.62 2425.22 4050.62 2425.22 4329.29 2425.22 4549.75 2425.22 4790 2425.22 5130 2697.5 5130 3090 5130 3478.49 4787.5 3737.5 4530 3738.36H3741.93C3578.99 3738.36 3369.43 3671.74 3244.43 3546.74L2515.05 2818.21H2515.07"></path>
<path transform="matrix(.1,0,0,-.1,0,412)" d="M3992.82 1382.25H3284.89C3089.89 1382.25 3082.39 1082.25 3284.89 1082.25H3647.76L2957.64 392.129C2804.65 239.129 3021.03 17.75 3183.57 180.281L3863.42 862.012V502.852C3862.39 307.852 4164.89 300.352 4165.35 502.852V1206.39C4165.35 1311.39 4094.89 1382.25 3992.82 1382.25"></path>
<path transform="matrix(.1,0,0,-.1,0,412)" d="M3789.86 3402.89H4498.91C4671.44 3402.89 4787.5 3210.02 4787.5 3095 4787.5 2979.98 4705.16 2765.31 4494.29 2765.31H4068C3887.5 2765.31 3807.5 2740 3703.59 2636.09L1666.79 599.289C1584.43 516.742 1479.89 484.07 1345.7 484.07H674.02C501.488 484.07 349.43 630.039 349.43 821.738 349.43 1013.44 494.43 1120.85 644.43 1120.85H1105.24C1239.43 1120.85 1327.75 1159.19 1404.43 1235.87L3475.61 3307.04C3560.83 3392.24 3645.02 3402.89 3789.86 3402.89" fill="#ffffff"></path></g></symbol>
  <symbol id="aiga-stairs" viewBox="0 0 48 48"><g transform="translate(-0.0106 4.0544) scale(0.1084)"><path transform="matrix(.1,0,0,-.1,0,368)" d="M14.25 430.25H815.25V1245.25H1610.25V2065.25H2418.25V2870.25H3220.25V3669.25H4412.25V3261.25H3620.25V2459.25H2816.25V1645.25H2015.25V835.25H1210.25V18.25H14.25V430.25"></path></g></symbol>
  <symbol id="aiga-stairs-down" viewBox="0 0 48 48"><g transform="translate(-0.0106 4.0544) scale(0.1084)"><path transform="matrix(.1,0,0,-.1,0,368)" d="M14.5 430H815V1244.75H1610.34V2065H2418.23V2870H3220.64V3669.74H4412.02V3261.7H3620V2458.92H2816.68V1644.84H2015V835H1210V18.2891H14.5V430"></path>
<path transform="matrix(.1,0,0,-.1,0,368)" d="M2682.07 34.1406H3390C3585 34.1406 3592.5 334.141 3390 334.141H3027.13L3717.25 1024.26C3870.24 1177.25 3653.85 1398.64 3491.32 1236.11L2811.47 554.379V913.531C2812.5 1108.53 2510 1116.03 2509.54 913.531V210C2509.54 105 2580 34.1406 2682.07 34.1406"></path></g></symbol>
  <symbol id="aiga-stairs-up" viewBox="0 0 48 48"><g transform="translate(-0.0106 3.5666) scale(0.1084)"><path transform="matrix(.1,0,0,-.1,0,377)" d="M14.5 520H815V1334.75H1610.34V2155H2418.23V2960H3220.64V3759.74H4412.02V3351.7H3620V2548.92H2816.68V1734.84H2015V925H1210V108.289H14.5V520"></path>
<path transform="matrix(.1,0,0,-.1,0,377)" d="M3602.93 1380.86H2895C2700 1380.86 2692.5 1080.86 2895 1080.86H3257.87L2567.75 390.738C2414.76 237.738 2631.14 16.3594 2793.68 178.891L3473.53 860.621V501.461C3472.5 306.461 3775 298.961 3775.46 501.461V1205C3775.46 1310 3705 1380.86 3602.93 1380.86"></path></g></symbol>
  <symbol id="aiga-elevator" viewBox="0 0 48 48"><g transform="translate(8.5278 -0.0036) scale(0.0964)"><path transform="matrix(.1,0,0,-.1,0,498)" d="M115.25 415.25V2595.25C115.289 2812.5 282.5 2993.1 512.25 2993.25H2697.25C2920 2993.1 3094.5 2815 3094.25 2595.25V415.25 414.25C3095 182.5 2917.5 19.5508 2700.25 19.25H512.25C295 19.5117 114.832 192.5 115.25 415.25"></path>
<path transform="matrix(.1,0,0,-.1,0,498)" d="M526.25 2576.25H2683.25V432.25H526.25V2576.25" fill="#ffffff"></path>
<path transform="matrix(.1,0,0,-.1,0,498)" d="M2144.25 4680.25C2141.35 4965.47 2553.85 4968.69 2556.25 4680.25L2550.25 3815.25 2772.25 4087.25C2925 4255 3194.38 4020.63 3028.25 3830.25L2490.25 3190.25C2405 3105 2294.5 3105.51 2210.25 3190.25L1674.25 3833.25C1508.13 4023.13 1780 4260 1930.25 4089.25L2150.25 3815.25 2144.25 4680.25"></path>
<path transform="matrix(.1,0,0,-.1,0,498)" d="M646.25 3339.25C643.852 3054.53 1056.35 3051.31 1059.25 3339.25L1052.25 4205.25 1274.25 3933.25C1427.5 3765 1696.88 3999.38 1530.25 4189.25L992.25 4830.25C907.5 4915 797 4914.49 712.25 4830.25L177.25 4187.25C10.625 3996.88 282.5 3760 433.25 3930.25L652.25 4205.25 646.25 3339.25"></path>
<path transform="matrix(.1,0,0,-.1,0,498)" d="M2580.25 1348.25C2580.55 1305 2545.63 1274.79 2507.25 1275.25 2507.25 1275.25 2025 1274.79 2024.25 1275.25 1986.46 1274.79 1950.93 1305.52 1951.25 1348.25V1873.25C1950.93 1933.33 1999.17 1974.5 2052.25 1974.25 2051.39 1974.5 2479.25 1974.25 2479.25 1974.25 2536.88 1974.5 2580.55 1928.75 2580.25 1873.25V1348.25"></path>
<path transform="matrix(.1,0,0,-.1,0,498)" d="M2462.25 1294.25H2279.25V584.25C2278.77 458.488 2462.5 458.488 2462.25 584.25V1294.25"></path>
<path transform="matrix(.1,0,0,-.1,0,498)" d="M2251.25 1294.25H2067.25V584.25C2067.14 459.445 2250.84 459.445 2251.25 584.25V1294.25"></path>
<path transform="matrix(.1,0,0,-.1,0,498)" d="M2267.25 2017.25C2343.65 2017.11 2405.39 2078.85 2405.25 2155.25 2405.39 2231.15 2343.65 2292.89 2267.25 2293.25 2191.35 2292.89 2129.61 2231.15 2129.25 2155.25 2129.61 2078.85 2191.35 2017.11 2267.25 2017.25"></path>
<path transform="matrix(.1,0,0,-.1,0,498)" d="M1920.25 1348.25C1920.55 1305 1885.63 1274.79 1847.25 1275.25 1847.25 1275.25 1365 1274.79 1364.25 1275.25 1326.46 1274.79 1290.93 1305.52 1291.25 1348.25V1873.25C1290.93 1933.33 1339.17 1974.5 1392.25 1974.25 1391.39 1974.5 1819.25 1974.25 1819.25 1974.25 1876.88 1974.5 1920.55 1928.75 1920.25 1873.25V1348.25"></path>
<path transform="matrix(.1,0,0,-.1,0,498)" d="M1802.25 1294.25H1619.25V584.25C1618.77 458.488 1802.5 458.488 1802.25 584.25V1294.25"></path>
<path transform="matrix(.1,0,0,-.1,0,498)" d="M1591.25 1294.25H1407.25V584.25C1407.14 459.445 1590.84 459.445 1591.25 584.25V1294.25"></path>
<path transform="matrix(.1,0,0,-.1,0,498)" d="M1607.25 2017.25C1683.65 2017.11 1745.39 2078.85 1745.25 2155.25 1745.39 2231.15 1683.65 2292.89 1607.25 2293.25 1531.35 2292.89 1469.61 2231.15 1469.25 2155.25 1469.61 2078.85 1531.35 2017.11 1607.25 2017.25"></path>
<path transform="matrix(.1,0,0,-.1,0,498)" d="M1260.25 1348.25C1260.55 1305 1225.63 1274.79 1187.25 1275.25 1187.25 1275.25 705 1274.79 704.25 1275.25 666.461 1274.79 630.926 1305.52 631.25 1348.25V1873.25C630.926 1933.33 679.168 1974.5 732.25 1974.25 731.387 1974.5 1159.25 1974.25 1159.25 1974.25 1216.88 1974.5 1260.55 1928.75 1260.25 1873.25V1348.25"></path>
<path transform="matrix(.1,0,0,-.1,0,498)" d="M1142.25 1294.25H959.25V584.25C958.773 458.488 1142.5 458.488 1142.25 584.25V1294.25"></path>
<path transform="matrix(.1,0,0,-.1,0,498)" d="M931.25 1294.25H747.25V584.25C747.137 459.445 930.844 459.445 931.25 584.25V1294.25"></path>
<path transform="matrix(.1,0,0,-.1,0,498)" d="M947.25 2017.25C1023.65 2017.11 1085.39 2078.85 1085.25 2155.25 1085.39 2231.15 1023.65 2292.89 947.25 2293.25 871.348 2292.89 809.613 2231.15 809.25 2155.25 809.613 2078.85 871.348 2017.11 947.25 2017.25"></path></g></symbol>
  <symbol id="aiga-toilets-men" viewBox="0 0 48 48"><g transform="translate(14.6985 0.0069) scale(0.0954)"><path transform="matrix(.1,0,0,-.1,0,503)" d="M976.988 4202.62C1202.49 4202.62 1385.33 4385.46 1385.33 4610.98 1385.33 4836.49 1202.49 5019.33 976.988 5019.33 751.461 5019.33 568.648 4836.49 568.648 4610.98 568.648 4385.46 751.461 4202.62 976.988 4202.62"></path>
<path transform="matrix(.1,0,0,-.1,0,503)" d="M540 4112.5C250.828 4112.5 18.2695 3876.66 18.2695 3582.5V2328.75C18.2695 2085 375 2085 375 2328.75V3475.17H459.449V336.102C459.449 10.1992 934.48 19.7891 934.48 336.102V2158.29H1016.3V336.102C1016.3 19.7891 1493.94 10.1992 1493.94 336.102V3475.17H1576.41V2328.75C1576.41 2083.12 1931.28 2083.13 1930.64 2328.75V3575C1930.64 3846.25 1720 4111.94 1402.5 4111.94L540 4112.5"></path></g></symbol>
  <symbol id="aiga-toilets-women" viewBox="0 0 48 48"><g transform="translate(12.4561 0.0021) scale(0.0958)"><path transform="matrix(.1,0,0,-.1,0,501)" d="M1206.25 4191.25C1427.52 4191.65 1606.69 4370.81 1606.25 4592.25 1606.69 4812.82 1427.52 4992 1206.25 4992.25 985.531 4992 806.34 4812.82 806.25 4592.25 806.34 4370.81 985.531 4191.65 1206.25 4191.25"></path>
<path transform="matrix(.1,0,0,-.1,0,501)" d="M1147.25 1653.25V267.25C1147.5 15 770.16 15 770.25 267.25V1643.25H263.25L805.25 3523.25H721.25L406.25 2462.25C330.801 2231.25 13.3008 2326.25 86.25 2574.25L436.25 3726.25C473.301 3857.13 639.43 4090 927.25 4090.25H1192.25 1477.25C1762.5 4090 1929.37 3855.17 1972.25 3726.25L2322.25 2575.25C2392.5 2327.5 2077.5 2225 2002.25 2466.25L1687.25 3523.25H1596.25L2142.25 1643.25H1635.25V265.25C1635 15 1259.23 16.25 1259.25 265.25V1653.25H1147.25"></path></g></symbol>
  <symbol id="aiga-toilets" viewBox="0 0 48 48"><g transform="translate(-0.002 1.7436) scale(0.1091)"><path transform="matrix(.1,0,0,-.1,0,408)" d="M2514.25 4027.25V95.25H2144.25V4027.25H2514.25"></path>
<path transform="matrix(.1,0,0,-.1,0,408)" d="M978.25 3415.25C1157.63 3415.22 1302.76 3560.33 1303.25 3739.25 1302.76 3918.36 1157.63 4063.5 978.25 4063.25 799.621 4063.5 654.48 3918.36 654.25 3739.25 654.48 3560.33 799.621 3415.22 978.25 3415.25"></path>
<path transform="matrix(.1,0,0,-.1,0,408)" d="M930.25 1360.25 931.25 226.25C930.82 22.1484 625.172 22.1484 625.25 226.25V1360.25H220.25L653.25 2863.25H585.25L330.25 2004.25C269.289 1817.3 12.1211 1894.25 71.25 2095.25L354.25 3028.25C384.719 3134.26 519.281 3322.89 752.25 3323.25H967.25 1198.25C1428.96 3322.89 1564.13 3132.67 1599.25 3028.25L1882.25 2095.25C1939.26 1895.27 1684.11 1812.24 1623.25 2007.25L1368.25 2863.25H1294.25L1732.25 1360.25H1325.25V224.25C1325.69 22.1484 1021.32 23.1602 1021.25 224.25V1360.25H930.25"></path>
<path transform="matrix(.1,0,0,-.1,0,408)" d="M3291.25 3324.25C3063.66 3324.1 2880.23 3135.43 2880.25 2900.25V1897.25C2880.23 1702.1 3161.59 1702.1 3161.25 1897.25V2814.25H3228.25V273.25C3228.2 12.25 3602.88 19.9219 3603.25 273.25V1760.25H3667.25V273.25C3667.41 19.9219 4044.14 12.25 4044.25 273.25V2814.25H4109.25V1897.25C4109.19 1700.59 4389.09 1700.6 4388.25 1897.25V2894.25C4388.58 3111.1 4222.44 3323.65 3972.25 3323.25L3291.25 3324.25"></path>
<path transform="matrix(.1,0,0,-.1,0,408)" d="M3633.25 3415.25C3812.62 3415.22 3957.75 3560.33 3958.25 3739.25 3957.75 3918.36 3812.62 4063.5 3633.25 4063.25 3454.61 4063.5 3309.47 3918.36 3309.25 3739.25 3309.47 3560.33 3454.61 3415.22 3633.25 3415.25"></path></g></symbol>
  <symbol id="aiga-nursery" viewBox="0 0 48 48"><g transform="translate(6.1024 0.0096) scale(0.1088)"><path transform="matrix(.1,0,0,-.1,0,441)" d="M1648.25 3198.25C1978 3198.33 2245.63 3465.97 2245.25 3796.25 2245.63 4126.25 1978 4393.89 1648.25 4394.25 1317.73 4393.89 1050.12 4126.25 1050.25 3796.25 1050.12 3465.97 1317.73 3198.33 1648.25 3198.25"></path>
<path transform="matrix(.1,0,0,-.1,0,441)" d="M1647.25 1948.25H1015.25V2405.25L532.25 1918.25C313.43 1700.22 17.5117 1980.16 236.25 2199.25L1036.25 3000.25C1101.25 3065 1172.28 3106 1285.25 3106.25H1647.25 2002.25C2115.22 3106 2191.25 3066.25 2258.25 3000.25L3066.25 2191.25C3274.52 1982.82 2970.61 1700.22 2771.25 1910.25L2275.25 2407.25V1948.25H1647.25"></path>
<path transform="matrix(.1,0,0,-.1,0,441)" d="M2272.25 1712.25 1797.25 1237.25 2146.25 889.25 1789.25 532.25C1578.05 321.039 1868.93 19.4609 2087.25 237.25L2652.25 825.25C2773.25 948.738 2806.78 1177.3 2677.25 1307.25 2676.34 1307.74 2272.25 1712.25 2272.25 1712.25"></path>
<path transform="matrix(.1,0,0,-.1,0,441)" d="M1015.25 1712.25 1490.25 1237.25 1141.25 889.25 1498.25 532.25C1709.45 321.039 1418.57 19.4609 1200.25 237.25L635.25 825.25C514.25 948.738 480.719 1177.3 610.25 1307.25 611.16 1307.74 1015.25 1712.25 1015.25 1712.25"></path></g></symbol>
  <symbol id="aiga-drinking-fountain" viewBox="0 0 48 48"><g transform="translate(4.7325 0.0075) scale(0.105)"><path transform="matrix(.1,0,0,-.1,0,457)" d="M2320.25 3654.25C2567.61 3654.18 2768.33 3854.9 2768.25 4102.25 2768.33 4350.08 2567.61 4550.82 2320.25 4551.25 2072.4 4550.82 1871.67 4350.08 1871.25 4102.25 1871.67 3854.9 2072.4 3654.18 2320.25 3654.25"></path>
<path transform="matrix(.1,0,0,-.1,0,457)" d="M1290.25 4015.25C1545 4145 1900 3905 1902.25 3641.25V2788.25L2309.25 2340.25C2495 2130 2199.97 1842.49 1994.25 2052.25L1534.25 2558.25C1506.24 2585.51 1484.91 2619.06 1485.25 2697.25V3105.25L684.25 2672.25V500.25C683.969 10 19.5 10.1016 19.25 496.25V3071.25C19.5 3214.53 76.4102 3354.13 218.25 3435.25L1290.25 4015.25"></path>
<path transform="matrix(.1,0,0,-.1,0,457)" d="M2955.25 1810.25H3660.25V3095.25L2240.25 3097.25C2057.5 3097.5 1989.16 2891.67 2102.25 2762.25L2955.25 1810.25"></path>
<path transform="matrix(.1,0,0,-.1,0,457)" d="M2546.25 3155.25C2576.04 3155.38 2600.57 3179.92 2600.25 3210.25 2600.57 3240.45 2576.04 3264.99 2546.25 3265.25 2515.51 3264.99 2490.97 3240.45 2491.25 3210.25 2490.97 3179.92 2515.51 3155.38 2546.25 3155.25"></path>
<path transform="matrix(.1,0,0,-.1,0,457)" d="M2692.25 3146.25C2722.8 3145.78 2747.34 3170.32 2747.25 3200.25 2747.34 3230.85 2722.8 3255.38 2692.25 3255.25 2662.27 3255.38 2637.74 3230.85 2637.25 3200.25 2637.74 3170.32 2662.27 3145.78 2692.25 3146.25"></path>
<path transform="matrix(.1,0,0,-.1,0,457)" d="M2702.25 3307.25C2732.2 3307.74 2756.74 3332.28 2756.25 3362.25 2756.74 3392.81 2732.2 3417.35 2702.25 3417.25 2671.67 3417.35 2647.14 3392.81 2647.25 3362.25 2647.14 3332.28 2671.67 3307.74 2702.25 3307.25"></path>
<path transform="matrix(.1,0,0,-.1,0,457)" d="M2556.25 3318.25C2586.02 3317.96 2610.55 3342.49 2610.25 3373.25 2610.55 3403.02 2586.02 3427.56 2556.25 3427.25 2525.49 3427.56 2500.95 3403.02 2501.25 3373.25 2500.95 3342.49 2525.49 3317.96 2556.25 3318.25"></path>
<path transform="matrix(.1,0,0,-.1,0,457)" d="M2603.25 3468.25C2635 3468.17 2660.76 3493.93 2661.25 3525.25 2660.76 3557.49 2635 3583.25 2603.25 3583.25 2571.44 3583.25 2545.68 3557.49 2545.25 3525.25 2545.68 3493.93 2571.44 3468.17 2603.25 3468.25"></path>
<path transform="matrix(.1,0,0,-.1,0,457)" d="M2781.25 3439.25C2813.39 3439.38 2839.15 3465.14 2839.25 3497.25 2839.15 3528.7 2813.39 3554.46 2781.25 3554.25 2749.83 3554.46 2724.07 3528.7 2724.25 3497.25 2724.07 3465.14 2749.83 3439.38 2781.25 3439.25"></path>
<path transform="matrix(.1,0,0,-.1,0,457)" d="M2718.25 3587.25C2751.59 3587.68 2778.64 3614.73 2778.25 3648.25 2778.64 3681.47 2751.59 3708.52 2718.25 3708.25 2684.86 3708.52 2657.8 3681.47 2658.25 3648.25 2657.8 3614.73 2684.86 3587.68 2718.25 3587.25"></path>
<path transform="matrix(.1,0,0,-.1,0,457)" d="M2925.25 3491.25C2958.15 3491.7 2985.2 3518.75 2985.25 3552.25 2985.2 3585.48 2958.15 3612.53 2925.25 3612.25 2891.42 3612.53 2864.36 3585.48 2864.25 3552.25 2864.36 3518.75 2891.42 3491.7 2925.25 3491.25"></path>
<path transform="matrix(.1,0,0,-.1,0,457)" d="M2859.25 3640.25C2892.4 3640.47 2919.45 3667.52 2919.25 3701.25 2919.45 3734.26 2892.4 3761.31 2859.25 3761.25 2825.67 3761.31 2798.62 3734.26 2798.25 3701.25 2798.62 3667.52 2825.67 3640.47 2859.25 3640.25"></path>
<path transform="matrix(.1,0,0,-.1,0,457)" d="M3022.25 3640.25C3058.77 3640.27 3088.6 3670.09 3088.25 3707.25 3088.6 3743.67 3058.77 3773.49 3022.25 3773.25 2985.2 3773.49 2955.37 3743.67 2955.25 3707.25 2955.37 3670.09 2985.2 3640.27 3022.25 3640.25"></path>
<path transform="matrix(.1,0,0,-.1,0,457)" d="M3073.25 3434.25C3110.43 3433.91 3140.25 3463.74 3140.25 3500.25 3140.25 3537.31 3110.43 3567.14 3073.25 3567.25 3036.85 3567.14 3007.03 3537.31 3007.25 3500.25 3007.03 3463.74 3036.85 3433.91 3073.25 3434.25"></path>
<path transform="matrix(.1,0,0,-.1,0,457)" d="M3175.25 3561.25C3214.17 3561.35 3245.49 3592.67 3245.25 3631.25 3245.49 3669.92 3214.17 3701.24 3175.25 3701.25 3136.92 3701.24 3105.6 3669.92 3105.25 3631.25 3105.6 3592.67 3136.92 3561.35 3175.25 3561.25"></path>
<path transform="matrix(.1,0,0,-.1,0,457)" d="M3309.25 3426.25C3349.81 3425.88 3382.69 3458.76 3382.25 3499.25 3382.69 3539.88 3349.81 3572.76 3309.25 3573.25 3268.69 3572.76 3235.81 3539.88 3236.25 3499.25 3235.81 3458.76 3268.69 3425.88 3309.25 3426.25"></path>
<path transform="matrix(.1,0,0,-.1,0,457)" d="M3182.25 3296.25C3222.99 3296.31 3255.87 3329.19 3256.25 3370.25 3255.87 3410.31 3222.99 3443.19 3182.25 3443.25 3141.88 3443.19 3109 3410.31 3109.25 3370.25 3109 3329.19 3141.88 3296.31 3182.25 3296.25"></path></g></symbol>
  <symbol id="aiga-waiting-room" viewBox="0 0 48 48"><g transform="translate(5.7552 0.0096) scale(0.1008)"><path transform="matrix(.1,0,0,-.1,0,476)" d="M884.25 3772.25C1153.34 3771.83 1371.15 3989.67 1371.25 4258.25 1371.15 4527.03 1153.34 4744.87 884.25 4745.25 615.941 4744.87 398.109 4527.03 398.25 4258.25 398.109 3989.67 615.941 3771.83 884.25 3772.25"></path>
<path transform="matrix(.1,0,0,-.1,0,476)" d="M515.25 3180.25C427.5 3740 1235 3910 1365.25 3337.25L1585.25 2240.25 2406.25 2239.25C2645.4 2239.03 2770 2047.33 2770.25 1870.25V379.25C2770 16.6992 2254.38 18.3984 2254.25 385.25 2254.38 725.559 2254.25 1546.25 2254.25 1546.25H1206.25C961.672 1545.81 808.309 1713.55 770.25 1905.25L515.25 3180.25"></path>
<path transform="matrix(.1,0,0,-.1,0,476)" d="M1870.25 1448.25C2142.33 1447.83 2141.06 1045 1874.25 1045.25H1121.25C755 1045 390 1320 294.25 1745.25L60.25 2885.25C12.4688 3143.83 385 3230 440.25 2965.25L662.25 1874.25C724.699 1596.4 930.781 1447.83 1180.25 1448.25H1870.25"></path>
<path transform="matrix(.1,0,0,-.1,0,476)" d="M2888.25 3929.25 3250.25 4105.25C3302.66 4128.64 3268.73 4204.32 3214.25 4180.25L2906.25 4041.25V4405.25C2906.27 4462.67 2819.9 4460.05 2820.25 4405.25L2821.25 3969.25C2821.2 3936.87 2856.43 3913.38 2888.25 3929.25"></path>
<path transform="matrix(.1,0,0,-.1,0,476)" d="M2890.25 3302.25C3282.62 3302.06 3601.04 3620.5 3601.25 4013.25 3601.04 4406.11 3282.62 4724.55 2890.25 4724.25 2497 4724.55 2178.56 4406.11 2178.25 4013.25 2178.56 3620.5 2497 3302.06 2890.25 3302.25"></path>
<path transform="matrix(.1,0,0,-.1,0,476)" d="M2890.25 3423.25C3215.9 3422.86 3480.25 3687.23 3480.25 4013.25 3480.25 4339.41 3215.9 4603.76 2890.25 4604.25 2563.73 4603.76 2299.36 4339.41 2299.25 4013.25 2299.36 3687.23 2563.73 3422.86 2890.25 3423.25" fill="#ffffff"></path>
<path transform="matrix(.1,0,0,-.1,0,476)" d="M2888.25 3929.25 3250.25 4105.25C3302.66 4128.64 3268.73 4204.32 3214.25 4180.25L2906.25 4041.25V4405.25C2906.27 4462.67 2819.9 4460.05 2820.25 4405.25L2821.25 3969.25C2821.2 3936.87 2856.43 3913.38 2888.25 3929.25"></path></g></symbol>
  <symbol id="aiga-information" viewBox="0 0 48 48"><g transform="translate(0.2204 0.0052) scale(0.1076)"><path transform="matrix(.1,0,0,-.1,0,446)" d="M2210.25 10.25C3423.59 10.6016 4407.44 1004.3 4407.25 2230.25 4407.44 3455.72 3423.59 4449.4 2210.25 4449.25 996.43 4449.4 12.5586 3455.72 12.25 2230.25 12.5586 1004.3 996.43 10.6016 2210.25 10.25"></path>
<path transform="matrix(.1,0,0,-.1,0,446)" d="M2210.25 522.25C3143.84 522.262 3900.86 1286.85 3901.25 2230.25 3900.86 3173.17 3143.84 3937.74 2210.25 3937.25 1276.18 3937.74 519.148 3173.17 519.25 2230.25 519.148 1286.85 1276.18 522.262 2210.25 522.25" fill="#ffffff"></path>
<path transform="matrix(.1,0,0,-.1,0,446)" d="M1982.25 1446.25 2477.25 1447.25V1832.25C2477.5 1936.88 2526.16 2035.5 2656.25 2121.25 2786.55 2206.28 3150 2379.52 3150.25 2835.25 3150 3290.5 2768.33 3603.58 2447.25 3670.25 2126.72 3736.42 1779.15 3692.72 1532.25 3422.25 1311.63 3180.53 1265.09 2989.13 1265.25 2567.25H1760.25V2665.25C1760 2890.01 1786.03 3127.54 2107.25 3192.25 2282.96 3227.96 2447.44 3172.92 2545.25 3077.25 2656.6 2968.38 2657.5 2722.5 2479.25 2600.25L2200.25 2410.25C2037.99 2305.9 1982.19 2189.69 1982.25 2019.25V1446.25"></path>
<path transform="matrix(.1,0,0,-.1,0,446)" d="M1979.25 742.25V1252.25H2481.25V742.25H1979.25"></path></g></symbol>
  <symbol id="aiga-hotel-information" viewBox="0 0 48 48"><g transform="translate(1.2964 0.0052) scale(0.1076)"><path transform="matrix(.1,0,0,-.1,0,446)" d="M912.25 1656.25C1127.85 1655.85 1302.83 1830.84 1303.25 2046.25 1302.83 2262.58 1127.85 2437.6 912.25 2437.25 696.109 2437.6 521.109 2262.58 521.25 2046.25 521.109 1830.84 696.109 1655.85 912.25 1656.25"></path>
<path transform="matrix(.1,0,0,-.1,0,446)" d="M1756.25 2157.25H3318.25C3547.5 2157.53 3682.52 2010 3682.25 1812.25V1247.25H1756.25V2157.25"></path>
<path transform="matrix(.1,0,0,-.1,0,446)" d="M1330.25 1955.25V1616.25H730.25C440 1614.96 439.531 1242.18 730.25 1242.25H1517.25C1632.5 1242.18 1704.5 1335 1704.25 1440.25V1955.25C1704.5 2237.4 1330.69 2237.4 1330.25 1955.25"></path>
<path transform="matrix(.1,0,0,-.1,0,446)" d="M446.25 2483.25C446.48 2791.21 19.4609 2791.21 19.25 2483.25V15.25H456.25V652.25H3777.25V20.25H4204.25V1926.25C4204.16 2251.2 3772.42 2251.2 3772.25 1926.25V1165.25H446.25V2483.25"></path>
<path transform="matrix(.1,0,0,-.1,0,446)" d="M2104.25 2488.25C2639.01 2488.49 3072.88 2926.71 3073.25 3467.25 3072.88 4007.76 2639.01 4445.97 2104.25 4446.25 1568.64 4445.97 1134.76 4007.76 1135.25 3467.25 1134.76 2926.71 1568.64 2488.49 2104.25 2488.25"></path>
<path transform="matrix(.1,0,0,-.1,0,446)" d="M2104.25 2714.25C2515.64 2714.13 2849.48 3051.31 2849.25 3467.25 2849.48 3883.16 2515.64 4220.33 2104.25 4220.25 1692.01 4220.33 1358.16 3883.16 1358.25 3467.25 1358.16 3051.31 1692.01 2714.13 2104.25 2714.25" fill="#ffffff"></path>
<path transform="matrix(.1,0,0,-.1,0,446)" d="M2003.25 3122.25H2222.25V3292.25C2221.79 3337.97 2243.25 3381.46 2300.25 3419.25 2358.08 3456.78 2518.36 3533.17 2518.25 3734.25 2518.36 3934.9 2350.04 4072.97 2208.25 4102.25 2067.1 4131.55 1913.82 4112.28 1805.25 3993.25 1707.64 3886.41 1687.12 3802 1687.25 3616.25H1905.25V3659.25C1905.37 3758.29 1916.85 3863.04 2058.25 3891.25 2136 3907.32 2208.53 3883.05 2251.25 3841.25 2300.77 3792.85 2301.17 3684.42 2222.25 3630.25L2099.25 3546.25C2027.97 3500.71 2003.36 3449.46 2003.25 3374.25V3122.25"></path>
<path transform="matrix(.1,0,0,-.1,0,446)" d="M2002.25 2811.25V3036.25H2223.25V2811.25H2002.25"></path></g></symbol>
  <symbol id="aiga-air-transportation" viewBox="0 0 48 48"><g transform="translate(1.0666 -0.0012) scale(0.1017)"><path transform="matrix(.1,0,0,-.1,0,472)" d="M1987.25 4370.25C1987.52 4710 2500.01 4710 2499.25 4360.25V2933.25L4497.25 1733.25V1205.25L2509.25 1860.25V793.25L2969.25 434.25V17.25L2260.25 237.25 1551.25 17.25V434.25L2006.25 793.25V1860.25L18.25 1205.25V1733.25L1987.25 2933.25V4370.25"></path></g></symbol>
  <symbol id="aiga-heliport" viewBox="0 0 48 48"><g transform="translate(-0.0096 9.0184) scale(0.0976)"><path transform="matrix(.1,0,0,-.1,0,307)" d="M532.25 1704.25C820.641 1704.49 1054.3 1938.15 1054.25 2226.25 1054.3 2514.59 820.641 2748.25 532.25 2748.25 244.219 2748.25 10.5508 2514.59 10.25 2226.25 10.5508 1938.15 244.219 1704.49 532.25 1704.25"></path>
<path transform="matrix(.1,0,0,-.1,0,307)" d="M532.25 1894.25C715.84 1894.27 864.539 2042.96 864.25 2226.25 864.539 2409.79 715.84 2558.47 532.25 2558.25 349.012 2558.47 200.32 2409.79 200.25 2226.25 200.32 2042.96 349.012 1894.27 532.25 1894.25" fill="#ffffff"></path>
<path transform="matrix(.1,0,0,-.1,0,307)" d="M2211.25 554.25C1812.01 553.789 1812.01 17.0313 2211.25 17.25H4520.25C4907.32 17.0313 4907.32 553.789 4520.25 554.25H2211.25"></path>
<path transform="matrix(.1,0,0,-.1,0,307)" d="M2893.25 2399.25V2888.25H2687.25V2399.25H2893.25"></path>
<path transform="matrix(.1,0,0,-.1,0,307)" d="M3210.25 2874.25V2980.25H2376.25V2874.25H3210.25"></path>
<path transform="matrix(.1,0,0,-.1,0,307)" d="M3282.25 3052.25H4613.25C4790.24 3051.92 4790.24 2797.91 4613.25 2798.25H3282.25C3109.32 2797.91 3109.32 3051.92 3282.25 3052.25"></path>
<path transform="matrix(.1,0,0,-.1,0,307)" d="M974.25 3052.25H2290.25C2467.15 3051.92 2467.15 2797.91 2290.25 2798.25H974.25C786.309 2797.91 783.648 3051.92 974.25 3052.25"></path>
<path transform="matrix(.1,0,0,-.1,0,307)" d="M2418.25 899.25C2246.79 898.852 2161.31 1023.46 2133.25 1129.25L2000.25 1464.25 479.25 2068.25C295 2140 340 2413.27 550.25 2413.25H3852.25C4220 2413.27 4425 2192.5 4520.25 1957.25L4785.25 1312.25C4880 1092.5 4719.26 900 4482.25 899.25H2418.25"></path>
<path transform="matrix(.1,0,0,-.1,0,307)" d="M3253.25 1635.25V2205.25H2897.25V1635.25H3253.25" fill="#ffffff"></path>
<path transform="matrix(.1,0,0,-.1,0,307)" d="M3816.25 2205.25V1635.25H3464.25V2205.25H3816.25" fill="#ffffff"></path>
<path transform="matrix(.1,0,0,-.1,0,307)" d="M4032.25 2182.25C4142.5 2155.94 4252.5 2057.5 4325.25 1895.25L4437.25 1632.25H4032.25V2182.25" fill="#ffffff"></path></g></symbol>
  <symbol id="aiga-taxi" viewBox="0 0 48 48"><g transform="translate(-0.0074 1.4048) scale(0.1228)"><path transform="matrix(.1,0,0,-.1,0,368)" d="M1950.25 749.25V749.25H902.25V419.25C902.512 16.2891 320.129 11.5 320.25 419.25V749.25H10.25V1785.25C10.1602 2063.11 233.738 2210 360.25 2226.25L678.25 3040.25C738.738 3195 868.738 3327.48 1113.25 3327.25H1569.25V3540.25C1569.13 3625 1615.23 3668.16 1690.25 3668.25H1950.25 2215.25C2290 3668.16 2336.1 3625 2336.25 3540.25V3327.25H2786.25C3031.26 3327.48 3161.26 3195 3221.25 3040.25L3540.25 2226.25C3666.26 2210 3890.07 2063.11 3890.25 1785.25V749.25H3580.25V419.25C3580.1 11.5 2997.72 16.2891 2997.25 419.25V749.25H1950.25"></path>
<path transform="matrix(.1,0,0,-.1,0,368)" d="M1950.25 2245.25H690.25L930.25 2875.25C959.98 2965 1005 3030 1110.25 3031.25H1949.25 1950.25 2790.25C2895.02 3030 2940.02 2965 2970.25 2875.25L3210.25 2245.25H1950.25" fill="#ffffff"></path>
<path transform="matrix(.1,0,0,-.1,0,368)" d="M620.25 1382.25C472.031 1382.64 351.582 1505.55 351.25 1657.25 351.582 1808.73 472.031 1931.63 620.25 1931.25 769.148 1931.63 889.59 1808.73 889.25 1657.25 889.59 1505.55 769.148 1382.64 620.25 1382.25" fill="#ffffff"></path>
<path transform="matrix(.1,0,0,-.1,0,368)" d="M3279.25 1382.25C3427.98 1382.64 3548.42 1505.55 3548.25 1657.25 3548.42 1808.73 3427.98 1931.63 3279.25 1931.25 3130.86 1931.63 3010.41 1808.73 3010.25 1657.25 3010.41 1505.55 3130.86 1382.64 3279.25 1382.25" fill="#ffffff"></path></g></symbol>
  <symbol id="aiga-bus" viewBox="0 0 48 48"><g transform="translate(4.7396 0.0052) scale(0.1076)"><path transform="matrix(.1,0,0,-.1,0,446)" d="M1810.25 4448.25C1407.45 4448.1 851.512 4333.08 621.25 4237.25 391.43 4141.38 238.07 4045.53 190.25 3806.25L17.25 2477.25V647.25H315.25V360.25C314.75 10 826.93 10 827.25 360.25V647.25H1772.25 1775.25 2758.25V360.25C2758.57 10 3270.75 10 3271.25 360.25V647.25H3568.25V2477.25L3395.25 3806.25C3347.43 4045.53 3194.07 4141.38 2964.25 4237.25 2733.99 4333.08 2178.05 4448.1 1775.25 4448.25"></path>
<path transform="matrix(.1,0,0,-.1,0,446)" d="M3014.25 1221.25C3150.13 1220.87 3260.13 1330.89 3260.25 1466.25 3260.13 1602.25 3150.13 1712.27 3014.25 1712.25 2878.77 1712.27 2768.76 1602.25 2769.25 1466.25 2768.76 1330.89 2878.77 1220.87 3014.25 1221.25" fill="#ffffff"></path>
<path transform="matrix(.1,0,0,-.1,0,446)" d="M571.25 1221.25C435.371 1220.87 325.371 1330.89 325.25 1466.25 325.371 1602.25 435.371 1712.27 571.25 1712.25 706.73 1712.27 816.738 1602.25 816.25 1466.25 816.738 1330.89 706.73 1220.87 571.25 1221.25" fill="#ffffff"></path>
<path transform="matrix(.1,0,0,-.1,0,446)" d="M1774.25 3897.25H1062.25C918.609 3896.97 918.609 4112.63 1062.25 4112.25H1775.25 2523.25C2666.89 4112.63 2666.89 3896.97 2523.25 3897.25H1774.25" fill="#ffffff"></path>
<path transform="matrix(.1,0,0,-.1,0,446)" d="M1774.25 3679.25H675.25C522.898 3679.23 483.219 3602.06 465.25 3485.25L330.25 2521.25C317.98 2429.17 344.691 2337.5 472.25 2337.25H1775.25 3113.25C3240.81 2337.5 3267.52 2429.17 3255.25 2521.25L3120.25 3485.25C3102.28 3602.06 3062.6 3679.23 2910.25 3679.25H1774.25" fill="#ffffff"></path></g></symbol>
  <symbol id="aiga-ground-transportation" viewBox="0 0 48 48"><g transform="translate(0.0096 8.9584) scale(0.0952)"><path transform="matrix(.1,0,0,-.1,0,316)" d="M1195.25 465.25V465.25H560.25V266.25C560.531 24.8711 207.602 21.9883 207.25 266.25V465.25H20.25V1086.25C19.7617 1252.97 155.25 1341.11 232.25 1350.25L425.25 1839.25C461.281 1932.11 540.059 2011.6 688.25 2011.25H964.25V2139.25C964.5 2190.12 992.441 2216.01 1038.25 2216.25H1195.25 1356.25C1401.35 2216.01 1429.29 2190.12 1429.25 2139.25V2011.25H1702.25C1850.56 2011.6 1929.34 1932.11 1965.25 1839.25L2159.25 1350.25C2235.37 1341.11 2371 1252.97 2371.25 1086.25V465.25H2183.25V266.25C2183.16 21.9883 1830.23 24.8711 1830.25 266.25V465.25H1195.25"></path>
<path transform="matrix(.1,0,0,-.1,0,316)" d="M1195.25 1362.25V1362.25H432.25L577.25 1740.25C595.359 1794.11 622.641 1833.11 686.25 1833.25H1195.25 1704.25C1768 1833.11 1795.27 1794.11 1813.25 1740.25L1959.25 1362.25H1195.25" fill="#ffffff"></path>
<path transform="matrix(.1,0,0,-.1,0,316)" d="M389.25 844.25C299.66 844.691 226.66 918.43 226.25 1009.25 226.66 1100.34 299.66 1174.08 389.25 1174.25 479.711 1174.08 552.699 1100.34 552.25 1009.25 552.699 918.43 479.711 844.691 389.25 844.25" fill="#ffffff"></path>
<path transform="matrix(.1,0,0,-.1,0,316)" d="M2001.25 844.25C2090.97 844.691 2163.96 918.43 2164.25 1009.25 2163.96 1100.34 2090.97 1174.08 2001.25 1174.25 1910.91 1174.08 1837.92 1100.34 1838.25 1009.25 1837.92 918.43 1910.91 844.691 2001.25 844.25" fill="#ffffff"></path>
<path transform="matrix(.1,0,0,-.1,0,316)" d="M3763.25 3145.25C3475.43 3144.75 3077.43 3063.65 2912.25 2996.25 2748.05 2928.49 2638.26 2860.92 2604.25 2692.25L2480.25 1755.25V465.25H2693.25V262.25C2693.16 15.6289 3059.83 15.6289 3060.25 262.25V465.25H3737.25 3739.25 4442.25V262.25C4442.69 15.6289 4809.37 15.6289 4809.25 262.25V465.25H5022.25V1755.25L4898.25 2692.25C4864.26 2860.92 4754.47 2928.49 4590.25 2996.25 4425.1 3063.65 4027.1 3144.75 3739.25 3145.25"></path>
<path transform="matrix(.1,0,0,-.1,0,316)" d="M4626.25 869.25C4723.01 869.371 4801.76 946.941 4802.25 1042.25 4801.76 1138.26 4723.01 1215.83 4626.25 1216.25 4528.75 1215.83 4449.99 1138.26 4450.25 1042.25 4449.99 946.941 4528.75 869.371 4626.25 869.25" fill="#ffffff"></path>
<path transform="matrix(.1,0,0,-.1,0,316)" d="M2876.25 869.25C2779.51 869.371 2700.76 946.941 2701.25 1042.25 2700.76 1138.26 2779.51 1215.83 2876.25 1216.25 2973.78 1215.83 3052.53 1138.26 3052.25 1042.25 3052.53 946.941 2973.78 869.371 2876.25 869.25" fill="#ffffff"></path>
<path transform="matrix(.1,0,0,-.1,0,316)" d="M3737.25 2756.25H3228.25C3125.46 2756.18 3125.46 2908.22 3228.25 2908.25H3739.25 4274.25C4377.06 2908.22 4377.06 2756.18 4274.25 2756.25H3737.25" fill="#ffffff"></path>
<path transform="matrix(.1,0,0,-.1,0,316)" d="M3737.25 2602.25H2951.25C2842.17 2602.66 2813.77 2548.25 2800.25 2465.25L2704.25 1786.25C2695.47 1721.29 2714.59 1656.66 2806.25 1656.25H3739.25 4696.25C4787.93 1656.66 4807.05 1721.29 4798.25 1786.25L4702.25 2465.25C4688.76 2548.25 4660.35 2602.66 4551.25 2602.25H3737.25" fill="#ffffff"></path></g></symbol>
  <symbol id="aiga-rail-transportation" viewBox="0 0 48 48"><g transform="translate(7.9946 -0.0081) scale(0.1013)"><path transform="matrix(.1,0,0,-.1,0,474)" d="M1578.25 734.25V734.25H2254.25L2748.25 10.25H3146.25L2456.25 1045.25C2686.22 1082.5 2915.29 1322.5 2915.25 1615.25V3753.25C2915.29 4055.5 2661.29 4332.64 2316.25 4332.25L1581.25 4333.25 840.25 4332.25C494.93 4332.64 240.93 4055.5 241.25 3753.25V1615.25C240.93 1322.5 470 1082.5 700.25 1045.25L10.25 10.25H408.25L902.25 734.25H1577.25 1578.25"></path>
<path transform="matrix(.1,0,0,-.1,0,474)" d="M1357.25 4395.25C1266.03 4395.04 1191.77 4469.32 1192.25 4561.25 1191.77 4652.6 1266.03 4726.88 1357.25 4727.25 1449.31 4726.88 1523.59 4652.6 1523.25 4561.25 1523.59 4469.32 1449.31 4395.04 1357.25 4395.25"></path>
<path transform="matrix(.1,0,0,-.1,0,474)" d="M1798.25 4395.25C1890.19 4395.04 1964.45 4469.32 1964.25 4561.25 1964.45 4652.6 1890.19 4726.88 1798.25 4727.25 1706.91 4726.88 1632.63 4652.6 1632.25 4561.25 1632.63 4469.32 1706.91 4395.04 1798.25 4395.25"></path>
<path transform="matrix(.1,0,0,-.1,0,474)" d="M2322.25 1357.25C2467.68 1357.37 2585.26 1474.96 2585.25 1620.25 2585.26 1765.05 2467.68 1882.63 2322.25 1882.25 2177.58 1882.63 2060 1765.05 2060.25 1620.25 2060 1474.96 2177.58 1357.37 2322.25 1357.25" fill="#ffffff"></path>
<path transform="matrix(.1,0,0,-.1,0,474)" d="M1578.25 2746.25V2746.25H2296.25C2461.22 2746.74 2596.22 2860 2594.25 3045.25V3430.25C2594.7 3590 2491.22 3729.62 2296.25 3729.25H1578.25 1577.25 860.25C665 3729.62 561.52 3590 561.25 3430.25V3045.25C560 2860 695 2746.74 860.25 2746.25H1577.25 1578.25" fill="#ffffff"></path>
<path transform="matrix(.1,0,0,-.1,0,474)" d="M1578.25 3845.25V3845.25H1868.25C1923.72 3844.87 1966.88 3890 1967.25 3942.25V4112.25C1966.88 4165 1921.22 4209.1 1868.25 4209.25H1578.25 1577.25 1287.25C1235 4209.1 1189.34 4165 1189.25 4112.25V3942.25C1189.34 3890 1232.5 3844.87 1287.25 3845.25H1577.25 1578.25" fill="#ffffff"></path>
<path transform="matrix(.1,0,0,-.1,0,474)" d="M827.25 1357.25C682.449 1357.37 564.871 1474.96 565.25 1620.25 564.871 1765.05 682.449 1882.63 827.25 1882.25 972.551 1882.63 1090.13 1765.05 1090.25 1620.25 1090.13 1474.96 972.551 1357.37 827.25 1357.25" fill="#ffffff"></path></g></symbol>
  <symbol id="aiga-water-transportation" viewBox="0 0 48 48"><g transform="translate(1.0304 -0.0066) scale(0.1037)"><path transform="matrix(.1,0,0,-.1,0,463)" d="M2525.25 120.25C2749.83 217.332 2854.74 204.16 3040.25 107.25 3224.82 10.5391 3409.85 10.5391 3628.25 122.25 3846.33 233.199 4023.95 169.73 4122.25 110.25 4205 60 4287.5 40 4411.25 40.25V485.25C4225 485 4145.25 548.25 4145.25 548.25 3953.1 666.832 3776.96 643.359 3535.25 517.25 3396.98 445.738 3178.11 464.621 3023.25 545.25 2809.65 656.719 2688.77 629.5 2465.25 530.25 2291.63 452.922 2135.16 452.969 1962.25 530.25 1738.87 629.789 1623.55 656.719 1410.25 545.25 1255.1 464.621 1033.02 445.738 895.25 517.25 653.031 643.359 480.102 666.832 288.25 548.25 288.25 548.25 205 485.301 22.25 485.25V40.25C137.5 40 227.5 62.5 305.25 110.25 403.359 170.281 586.84 233.199 805.25 122.25 1023.35 10.5391 1208.39 10.5391 1393.25 107.25 1578.47 204.16 1681.02 221.609 1906.25 124.25 2124.09 12.9492 2339.95 23.1992 2525.25 120.25"></path>
<path transform="matrix(.1,0,0,-.1,0,463)" d="M2520.25 780.25C2697.5 870 2857.1 864.859 3042.25 768.25 3227.18 671.25 3412.22 671.25 3630.25 782.25 3848.71 893.91 4031.92 837.648 4133.25 783.25 4222.5 735 4285 710 4413.25 700.25V1135.25C4250 1138.92 4147.25 1198.25 4147.25 1198.25 3770 1403.92 3605.72 1153.11 3402.25 1153.25V2157.25L3716.25 2878.25C3763.32 2989.78 3715.87 3091.43 3602.25 3140.25L3412.25 3217.25V3841.25H3046.25V4170.25H2534.25V4611.25H2216.25 1898.25V4170.25H1386.25V3841.25H1021.25V3217.25L831.25 3140.25C717.332 3091.43 669.879 2989.78 717.25 2878.25L1030.25 2157.25V1153.25C827.609 1153.11 655 1400 285.25 1194.25 285.25 1194.25 180 1135 20.25 1131.25V700.25C145 710 205 730 300.25 783.25 400.469 839.27 584.488 893.91 802.25 782.25 1020.99 671.25 1206.02 671.25 1391.25 768.25 1576.11 864.859 1737.42 869.711 1910.25 782.25 2128.84 671.25 2300 670 2520.25 780.25"></path>
<path transform="matrix(.1,0,0,-.1,0,463)" d="M2216.25 3909.25H1657.25V3585.25H1291.25V3333.25L2216.25 3715.25 3142.25 3333.25V3585.25H2776.25V3909.25H2216.25" fill="#ffffff"></path></g></symbol>
  <symbol id="aiga-car-rental" viewBox="0 0 48 48"><g transform="translate(6.2388 -0.0096) scale(0.0984)"><path transform="matrix(.1,0,0,-.1,0,488)" d="M2160.25 3101.25H2574.25C2800.03 3101.24 2919.67 2978.08 2975.25 2834.25L3268.25 2077.25C3384.44 2062.4 3590.42 1925.84 3590.25 1667.25V705.25H3305.25V397.25C3305.15 18.6094 2769.16 23.0703 2769.25 397.25V705.25H1805.25 1804.25 1805.25 841.25V397.25C840.879 23.0703 304.891 18.6094 305.25 397.25V705.25H19.25V1667.25C19.6094 1925.84 225.379 2062.4 341.25 2077.25L635.25 2834.25C690.148 2978.08 809.801 3101.24 1035.25 3101.25H1454.25 2160.25"></path>
<path transform="matrix(.1,0,0,-.1,0,488)" d="M1039.25 3388.25C1444.37 3388.43 1772.56 3719.97 1772.25 4129.25 1772.56 4537.91 1444.37 4869.45 1039.25 4869.25 634.672 4869.45 306.449 4537.91 306.25 4129.25 306.449 3719.97 634.672 3388.43 1039.25 3388.25"></path>
<path transform="matrix(.1,0,0,-.1,0,488)" d="M1586.25 4497.25H3152.25L3403.25 4243.25C3449.65 4196.09 3448.47 4163.73 3403.25 4118.25L3097.25 3809.25 2917.25 3991.25 2737.25 3809.25 2559.25 3989.25 2386.25 3814.25 2205.25 3996.25 1970.25 3759.25H1586.25V4497.25"></path>
<path transform="matrix(.1,0,0,-.1,0,488)" d="M1804.25 2085.25V2085.25H645.25L866.25 2680.25C893.77 2764.27 935.199 2824.69 1032.25 2825.25H1804.25 1805.25 2578.25C2674.64 2824.69 2716.06 2764.27 2743.25 2680.25L2964.25 2085.25H1805.25 1804.25" fill="#ffffff"></path>
<path transform="matrix(.1,0,0,-.1,0,488)" d="M581.25 1285.25C444.691 1285 333.828 1399.26 334.25 1540.25 333.828 1681.11 444.691 1795.36 581.25 1795.25 718.141 1795.36 828.98 1681.11 829.25 1540.25 828.98 1399.26 718.141 1285 581.25 1285.25" fill="#ffffff"></path>
<path transform="matrix(.1,0,0,-.1,0,488)" d="M3028.25 1285.25C3165.15 1285 3275.99 1399.26 3276.25 1540.25 3275.99 1681.11 3165.15 1795.36 3028.25 1795.25 2891.7 1795.36 2780.84 1681.11 2781.25 1540.25 2780.84 1399.26 2891.7 1285 3028.25 1285.25" fill="#ffffff"></path>
<path transform="matrix(.1,0,0,-.1,0,488)" d="M717.25 3936.25C824.949 3936.03 912.07 4024.05 912.25 4132.25 912.07 4241.14 824.949 4329.15 717.25 4329.25 610.051 4329.15 522.93 4241.14 523.25 4132.25 522.93 4024.05 610.051 3936.03 717.25 3936.25" fill="#ffffff"></path></g></symbol>
  <symbol id="aiga-restaurant" viewBox="0 0 48 48"><g transform="translate(11.9018 -0.0036) scale(0.0964)"><path transform="matrix(.1,0,0,-.1,0,498)" d="M1162.25 3287.25C1162.38 3134.16 1022.68 2970 841.25 2970.25V381.25C841.539 14.2695 340.73 14.2695 340.25 381.25V2970.25C164.332 2970 10.8008 3105.83 11.25 3309.25V4734.25C10.8008 4857.74 190 4862.53 190.25 4729.25V3676.25H340.25V4738.25C340 4852.5 512.5 4859.82 512.25 4734.25V3676.25H667.25V4737.25C667.5 4856.28 835 4861.07 835.25 4732.25V3676.25H987.25V4737.25C987.5 4855.03 1162.47 4859.82 1162.25 4732.25V3287.25"></path>
<path transform="matrix(.1,0,0,-.1,0,498)" d="M2498.25 4402.25V383.25C2498.26 23.6016 1996.49 28.9219 1996.25 383.25V1978.25H1729.25V4402.25C1729.3 4967.15 2498.26 4967.15 2498.25 4402.25"></path></g></symbol>
  <symbol id="aiga-coffee-shop" viewBox="0 0 48 48"><g transform="translate(0.0052 9.0974) scale(0.1076)"><path transform="matrix(.1,0,0,-.1,0,277)" d="M4445.25 487.25H14.25C14.25 166.68 258.738 17.8789 455.25 18.25H4005.25C4239.93 17.8789 4445.69 202.512 4445.25 487.25"></path>
<path transform="matrix(.1,0,0,-.1,0,277)" d="M960.25 2751.25V1015.25C959.871 779.949 1162.88 593.629 1382.25 593.25H3097.25C3345.28 593.629 3514.05 801.621 3514.25 1015.25V1160.25C4002.93 1159.97 4358.13 1527.55 4358.25 1955.25 4358.13 2392.54 4010 2751.05 3605.25 2751.25H960.25"></path>
<path transform="matrix(.1,0,0,-.1,0,277)" d="M4046.25 1954.25C4047.5 2107.5 3940 2424.86 3605.25 2425.25H3514.25V1490.25C3862.5 1467.5 4046.22 1705.56 4046.25 1955.25V1954.25" fill="#ffffff"></path></g></symbol>
  <symbol id="aiga-bar" viewBox="0 0 48 48"><g transform="translate(0.0636 -0.0018) scale(0.1308)"><path transform="matrix(.1,0,0,-.1,0,367)" d="M18.25 3651.25H3643.25L2068.25 1706.25V460.25H2940.25C3232.5 459.961 3235 19.0508 2940.25 19.25H765.25C470 19.0508 470 459.961 765.25 460.25H1622.25V1715.25L18.25 3651.25"></path>
<path transform="matrix(.1,0,0,-.1,0,367)" d="M2120.25 2278.25C2275.32 2278.74 2401.25 2404.66 2401.25 2560.25 2401.25 2715.32 2275.32 2841.27 2120.25 2841.25 1964.66 2841.27 1838.74 2715.32 1838.25 2560.25 1838.74 2404.66 1964.66 2278.74 2120.25 2278.25" fill="#ffffff"></path></g></symbol>
  <symbol id="aiga-shops" viewBox="0 0 48 48"><g transform="translate(0.001 1.0495) scale(0.1165)"><path transform="matrix(.1,0,0,-.1,0,394)" d="M22.25 3849.25H706.25V3482.25C706.25 3397.05 767.059 3367.65 850.25 3402.25L1962.25 3908.25C1995.22 3922.79 2036.02 3905.57 2050.25 3877.25L2139.25 3686.25C2152.5 3655.24 2142.1 3618.4 2108.25 3602.25L555.25 2900.25C286.84 2759.25 22.3594 2943.72 22.25 3195.25V3849.25"></path>
<path transform="matrix(.1,0,0,-.1,0,394)" d="M4102.25 2997.25H3728.25L4088.25 3288.25 3882.25 3565.25 3559.25 3326.25 3708.25 3809.25 3385.25 3910.25 3217.25 3398.25 3050.25 3910.25 2727.25 3809.25 2875.25 3326.25 2540.25 3570.25 2334.25 3293.25 2706.25 2997.25H2332.25V15.25H4102.25V2992.25 2997.25"></path>
<path transform="matrix(.1,0,0,-.1,0,394)" d="M1347.25 3002.25C1346.2 3000.52 255.25 2515.25 255.25 2515.25 80 2430 16.4688 2307.23 16.25 2140.25V494.25C16.4688 231.148 227.18 16.1289 470.25 16.25H1931.25V317.25C1752.54 340.32 1752.55 595.93 1927.25 619.25V2660.25H1346.25L1347.25 3002.25"></path>
<path transform="matrix(.1,0,0,-.1,0,394)" d="M3769.25 2643.25H3394.25V2170.25H3769.25V2643.25" fill="#ffffff"></path>
<path transform="matrix(.1,0,0,-.1,0,394)" d="M3039.25 2643.25H2664.25V2170.25H3039.25V2643.25" fill="#ffffff"></path>
<path transform="matrix(.1,0,0,-.1,0,394)" d="M3769.25 1822.25H3394.25V364.25H3769.25V1822.25" fill="#ffffff"></path>
<path transform="matrix(.1,0,0,-.1,0,394)" d="M3039.25 1822.25H2664.25V364.25H3039.25V1822.25" fill="#ffffff"></path>
<path transform="matrix(.1,0,0,-.1,0,394)" d="M1482.25 575.25H462.25C303.289 575.172 302.719 350.602 462.25 350.25H1491.25C1416.55 398.379 1411.86 522.609 1482.25 575.25" fill="#ffffff"></path>
<path transform="matrix(.1,0,0,-.1,0,394)" d="M1600.25 895.25H707.25L1346.25 1182.25V2328.25H1600.25V895.25" fill="#ffffff"></path></g></symbol>
  <symbol id="aiga-barber-beauty" viewBox="0 0 48 48"><g transform="translate(10.1008 0.0096) scale(0.0952)"><path transform="matrix(.1,0,0,-.1,0,504)" d="M2474.25 4439.25H1754.25C1624.2 4438.98 1628.98 4246.33 1754.25 4246.25H2474.25V4150.25H1755.25C1624.78 4150.02 1629.57 3957.37 1755.25 3957.25H2474.25V3861.25 3856.25H1755.25C1624.78 3856.23 1629.57 3663.59 1755.25 3663.25H2474.25V3567.25H1755.25C1627.5 3567.26 1629.57 3374.62 1755.25 3374.25H2474.25V3278.25H1755.25C1627.5 3278.29 1627.07 3085.65 1755.25 3085.25H2474.25V2989.25H1755.25C1627.5 2989.32 1627.07 2796.68 1755.25 2796.25H2474.25V2700.25H1755.25C1627.5 2700.35 1627.07 2507.73 1755.25 2507.25H2474.25V2411.25H1755.25C1627.5 2411.42 1629.57 2218.76 1755.25 2219.25H2474.25V350.25C2474.7 64.9609 2909.99 69.9609 2910.25 350.25V4725.25C2909.99 4855 2802.5 5019.64 2625.25 5019.25L1754.25 5020.25C1624.08 5020.09 1628.87 4827.43 1754.25 4827.25H2474.25V4730.25H1754.25C1624.27 4730.66 1629.06 4538.02 1754.25 4538.25H2474.25V4439.25"></path>
<path transform="matrix(.1,0,0,-.1,0,504)" d="M1640.25 665.25C1616.04 506.852 1669.69 223.211 1782.25 120.25 1900 12.5 2039.21 149.5 1981.25 261.25 1923.56 371.16 1850.2 431.41 1912.25 695.25L1640.25 665.25"></path>
<path transform="matrix(.1,0,0,-.1,0,504)" d="M1096.25 5021.25C1063.84 5021.49 1029.34 5008.55 1023.25 4952.25L788.25 2855.25V1583.25C345 1815 12.1484 1455 12.25 1128.25 12.1484 836.031 227.039 596.41 534.25 596.25 840.48 596.41 1050.28 864.789 1050.25 1128.25V2406.25H1149.25V1128.25C1148.8 824.172 1394.17 600 1657.25 600.25 1987.5 600 2197.85 832.66 2198.25 1125.25 2197.85 1457.5 1855 1815 1410.25 1583.25V2855.25L1169.25 4952.25C1163.04 5008.55 1128.53 5021.49 1096.25 5021.25"></path>
<path transform="matrix(.1,0,0,-.1,0,504)" d="M530.25 864.25C385.68 864.078 268.852 980.891 269.25 1125.25 268.852 1269.12 385.68 1385.95 530.25 1386.25 673.891 1385.95 790.719 1269.12 790.25 1125.25 790.719 980.891 673.891 864.078 530.25 864.25" fill="#ffffff"></path>
<path transform="matrix(.1,0,0,-.1,0,504)" d="M1680.25 864.25C1824.09 864.078 1940.93 980.891 1941.25 1125.25 1940.93 1269.12 1824.09 1385.95 1680.25 1386.25 1535.88 1385.95 1419.05 1269.12 1419.25 1125.25 1419.05 980.891 1535.88 864.078 1680.25 864.25" fill="#ffffff"></path></g></symbol>
  <symbol id="aiga-barber-shop" viewBox="0 0 48 48"><g transform="translate(1.8672 0.0069) scale(0.0954)"><path transform="matrix(.1,0,0,-.1,0,503)" d="M2478.25 4437.25H1758.25C1628.13 4436.98 1632.91 4244.33 1758.25 4244.25H2478.25V4148.25H1759.25C1628.71 4148.03 1633.5 3955.38 1759.25 3955.25H2478.25V3859.25 3854.25H1759.25C1628.71 3854.24 1633.5 3661.6 1759.25 3661.25H2478.25V3565.25H1759.25C1631.43 3565.27 1633.5 3372.63 1759.25 3372.25H2478.25V3276.25H1759.25C1631.43 3276.3 1631 3083.66 1759.25 3083.25H2478.25V2987.25H1759.25C1631.43 2987.33 1631 2794.69 1759.25 2794.25H2478.25V2698.25H1759.25C1631.43 2698.36 1631 2505.74 1759.25 2505.25H2478.25V2409.25H1758.25C1631.43 2409.43 1633.5 2216.77 1759.25 2217.25H2478.25V348.25C2478.63 62.9688 2913.92 67.9688 2914.25 348.25V4723.25C2913.92 4853 2806.43 5017.64 2629.25 5017.25L1758.25 5018.25C1628.01 5018.09 1632.8 4825.43 1758.25 4825.25H2478.25V4728.25H1758.25C1628.2 4728.66 1632.99 4536.02 1758.25 4536.25H2478.25V4437.25"></path>
<path transform="matrix(.1,0,0,-.1,0,503)" d="M1644.25 663.25C1619.97 504.859 1673.62 221.219 1786.25 118.25 1903.93 10.5117 2043.14 147.512 1985.25 259.25 1927.49 369.172 1854.13 429.422 1916.25 693.25L1644.25 663.25"></path>
<path transform="matrix(.1,0,0,-.1,0,503)" d="M1100.25 5019.25C1067.77 5019.49 1033.27 5006.55 1027.25 4950.25L792.25 2853.25V1581.25C348.93 1813.01 16.082 1453.01 16.25 1126.25 16.082 834.039 230.969 594.422 537.25 594.25 844.41 594.422 1054.21 862.801 1054.25 1126.25V2404.25H1152.25V1126.25C1152.73 822.18 1398.1 598.012 1661.25 598.25 1991.43 598.012 2201.78 830.672 2202.25 1123.25 2201.78 1455.51 1858.93 1813.01 1414.25 1581.25V2853.25L1173.25 4950.25C1166.97 5006.55 1132.46 5019.49 1100.25 5019.25"></path>
<path transform="matrix(.1,0,0,-.1,0,503)" d="M533.25 862.25C389.609 862.09 272.781 978.898 273.25 1123.25 272.781 1267.13 389.609 1383.96 533.25 1384.25 677.82 1383.96 794.648 1267.13 794.25 1123.25 794.648 978.898 677.82 862.09 533.25 862.25" fill="#ffffff"></path>
<path transform="matrix(.1,0,0,-.1,0,503)" d="M1684.25 862.25C1828.02 862.09 1944.86 978.898 1945.25 1123.25 1944.86 1267.13 1828.02 1383.96 1684.25 1384.25 1539.81 1383.96 1422.98 1267.13 1423.25 1123.25 1422.98 978.898 1539.81 862.09 1684.25 862.25" fill="#ffffff"></path>
<path transform="matrix(.1,0,0,-.1,0,503)" d="M4057.25 4509.25C4192.51 4509.53 4302.22 4619.23 4302.25 4754.25 4302.22 4889.86 4192.51 4999.56 4057.25 4999.25 3921.89 4999.56 3812.21 4889.86 3812.25 4754.25 3812.21 4619.23 3921.89 4509.53 4057.25 4509.25"></path>
<path transform="matrix(.1,0,0,-.1,0,503)" d="M3795.25 4455.25C3621.52 4455.46 3481.98 4313.95 3482.25 4137.25V3385.25C3481.98 3238.95 3696.02 3238.95 3696.25 3385.25V4073.25H3746.25V2189.25C3746.69 1994.06 4031.7 1999.82 4031.25 2189.25V3283.25H4081.25V2189.25C4080.8 1999.82 4367.38 1994.06 4367.25 2189.25V4073.25H4417.25V3385.25C4416.87 3237.83 4629.79 3237.83 4629.25 3385.25V4133.25C4629.41 4295.71 4503.02 4455.12 4312.25 4455.25H3795.25"></path></g></symbol>
  <symbol id="aiga-beauty-salon" viewBox="0 0 48 48"><g transform="translate(1.1517 0.0069) scale(0.0954)"><path transform="matrix(.1,0,0,-.1,0,503)" d="M2478.25 4437.25H1758.25C1628.13 4436.98 1632.91 4244.33 1758.25 4244.25H2478.25V4148.25H1759.25C1628.71 4148.03 1633.5 3955.38 1759.25 3955.25H2478.25V3859.25 3854.25H1759.25C1628.71 3854.24 1633.5 3661.6 1759.25 3661.25H2478.25V3565.25H1759.25C1631.43 3565.27 1633.5 3372.63 1759.25 3372.25H2478.25V3276.25H1759.25C1631.43 3276.3 1631 3083.66 1759.25 3083.25H2478.25V2987.25H1759.25C1631.43 2987.33 1631 2794.69 1759.25 2794.25H2478.25V2698.25H1759.25C1631.43 2698.36 1631 2505.74 1759.25 2505.25H2478.25V2409.25H1758.25C1631.43 2409.43 1633.5 2216.77 1759.25 2217.25H2478.25V348.25C2478.63 62.9688 2913.92 67.9688 2914.25 348.25V4723.25C2913.92 4853 2806.43 5017.64 2629.25 5017.25L1758.25 5018.25C1628.01 5018.09 1632.8 4825.43 1758.25 4825.25H2478.25V4728.25H1758.25C1628.2 4728.66 1632.99 4536.02 1758.25 4536.25H2478.25V4437.25"></path>
<path transform="matrix(.1,0,0,-.1,0,503)" d="M1644.25 663.25C1619.97 504.859 1673.62 221.219 1786.25 118.25 1903.93 10.5117 2043.14 147.512 1985.25 259.25 1927.49 369.172 1854.13 429.422 1916.25 693.25L1644.25 663.25"></path>
<path transform="matrix(.1,0,0,-.1,0,503)" d="M1100.25 5019.25C1067.77 5019.49 1033.27 5006.55 1027.25 4950.25L792.25 2853.25V1581.25C348.93 1813.01 16.082 1453.01 16.25 1126.25 16.082 834.039 230.969 594.422 537.25 594.25 844.41 594.422 1054.21 862.801 1054.25 1126.25V2404.25H1152.25V1126.25C1152.73 822.18 1398.1 598.012 1661.25 598.25 1991.43 598.012 2201.78 830.672 2202.25 1123.25 2201.78 1455.51 1858.93 1813.01 1414.25 1581.25V2853.25L1173.25 4950.25C1166.97 5006.55 1132.46 5019.49 1100.25 5019.25"></path>
<path transform="matrix(.1,0,0,-.1,0,503)" d="M4058.25 4523.25C4191.21 4523.28 4298.72 4630.78 4298.25 4763.25 4298.72 4895.99 4191.21 5003.5 4058.25 5003.25 3926.02 5003.5 3818.51 4895.99 3818.25 4763.25 3818.51 4630.78 3926.02 4523.28 4058.25 4523.25"></path>
<path transform="matrix(.1,0,0,-.1,0,503)" d="M4023.25 3000.25V2168.25C4023.2 2017.27 3796.8 2017.27 3797.25 2168.25L3796.25 2994.25H3492.25L3817.25 4122.25H3767.25L3578.25 3486.25C3533.18 3347.04 3342.68 3404.04 3386.25 3552.25L3596.25 4244.25C3618.68 4322.57 3718.36 4462.29 3891.25 4462.25H4050.25 4221.25C4392.2 4462.29 4492.33 4321.39 4518.25 4244.25L4728.25 3553.25C4770.21 3404.79 4581.2 3343.29 4536.25 3488.25L4347.25 4122.25H4292.25L4620.25 2994.25H4315.25V2167.25C4315.7 2017.27 4090.24 2018.02 4090.25 2167.25V3000.25H4023.25"></path>
<path transform="matrix(.1,0,0,-.1,0,503)" d="M533.25 862.25C389.609 862.09 272.781 978.898 273.25 1123.25 272.781 1267.13 389.609 1383.96 533.25 1384.25 677.82 1383.96 794.648 1267.13 794.25 1123.25 794.648 978.898 677.82 862.09 533.25 862.25" fill="#ffffff"></path>
<path transform="matrix(.1,0,0,-.1,0,503)" d="M1684.25 862.25C1828.02 862.09 1944.86 978.898 1945.25 1123.25 1944.86 1267.13 1828.02 1383.96 1684.25 1384.25 1539.81 1383.96 1422.98 1267.13 1423.25 1123.25 1422.98 978.898 1539.81 862.09 1684.25 862.25" fill="#ffffff"></path></g></symbol>
  <symbol id="aiga-ticket-purchase" viewBox="0 0 48 48"><g transform="translate(0.0044 0.8578) scale(0.1004)"><path transform="matrix(.1,0,0,-.1,0,461)" d="M1203.25 3856.25C1408.46 3856.11 1575 4022.62 1575.25 4228.25 1575 4433.46 1408.46 4600 1203.25 4600.25 997.629 4600 831.102 4433.46 831.25 4228.25 831.102 4022.62 997.629 3856.11 1203.25 3856.25"></path>
<path transform="matrix(.1,0,0,-.1,0,461)" d="M227.25 2537.25H554.25L752.25 3256.25H832.25L639.25 2537.25H1795.25L1588.25 3256.25H1672.25L1782.25 2904.25C1835 2755 1966.82 2720.61 2068.25 2847.25L2469.25 3331.25C2593.75 3493.75 2367.5 3665 2236.25 3522.25L2000.25 3240.25C2000 3235.31 1955.25 3395.25 1955.25 3395.25 1900 3585 1720 3771.75 1450.25 3772.25H940.25C700 3771.75 511.051 3561.67 472.25 3430.25L227.25 2537.25"></path>
<path transform="matrix(.1,0,0,-.1,0,461)" d="M2684.25 3517.25V4260.25H2351.25V3517.25H2684.25"></path>
<path transform="matrix(.1,0,0,-.1,0,461)" d="M3810.25 3852.25C4015.29 3852.56 4181.82 4019.08 4182.25 4224.25 4181.82 4429.92 4015.29 4596.45 3810.25 4596.25 3604.46 4596.45 3437.93 4429.92 3438.25 4224.25 3437.93 4019.08 3604.46 3852.56 3810.25 3852.25"></path>
<path transform="matrix(.1,0,0,-.1,0,461)" d="M4280.25 339.25V2396.25H4553.25V3516.25C4553.51 3662.2 4422 3774.92 4234.25 3775.25H3360.25C3186.82 3774.92 3144.55 3718.56 3097.25 3671.25L2370.25 2797.25C2221.82 2615.13 2484.77 2401.89 2632.25 2572.25L3333.25 3401.25V337.25C3333.17 27.8789 3765 17.7188 3765.25 327.25V2066.25L3851.25 2067.25V335.25C3851.04 28.8203 4280.27 27.8789 4280.25 339.25"></path>
<path transform="matrix(.1,0,0,-.1,0,461)" d="M4768.25 2029.25V2452.25H10.25V2029.25H4768.25"></path></g></symbol>
  <symbol id="aiga-baggage-check-in" viewBox="0 0 48 48"><g transform="translate(0.0016 4.0768) scale(0.1132)"><path transform="matrix(.1,0,0,-.1,0,352)" d="M960.25 2855.25H1527.25V3263.25C1527.67 3410.94 1660.32 3504.92 1818.25 3505.25 1816.25 3504.92 2424.25 3505.25 2424.25 3505.25 2581.95 3504.92 2712.39 3410.94 2712.25 3263.25V2855.25H3285.25V17.25H960.25V2855.25"></path>
<path transform="matrix(.1,0,0,-.1,0,352)" d="M747.25 22.25H435.25C220 21.8203 11.3398 180 11.25 455.25 11.25 455.25 11.3398 2425 11.25 2430.25 11.3398 2675 215 2860.38 435.25 2860.25H747.25V22.25"></path>
<path transform="matrix(.1,0,0,-.1,0,352)" d="M2496.25 2855.25V3275.25H1736.25V2855.25H2496.25" fill="#ffffff"></path>
<path transform="matrix(.1,0,0,-.1,0,352)" d="M3493.25 22.25H3805.25C4020 21.8203 4228.66 180 4228.25 455.25 4228.25 455.25 4228.66 2425 4228.25 2430.25 4228.66 2675 4025 2860.38 3805.25 2860.25H3493.25V22.25"></path></g></symbol>
  <symbol id="aiga-baggage-claim" viewBox="0 0 48 48"><g transform="translate(0.0016 4.0768) scale(0.1132)"><path transform="matrix(.1,0,0,-.1,0,352)" d="M960.25 2855.25H1527.25V3263.25C1527.67 3410.94 1660.32 3504.92 1818.25 3505.25 1816.25 3504.92 2424.25 3505.25 2424.25 3505.25 2581.95 3504.92 2712.39 3410.94 2712.25 3263.25V2855.25H3285.25V17.25H960.25V2855.25"></path>
<path transform="matrix(.1,0,0,-.1,0,352)" d="M747.25 22.25H435.25C220 21.8203 11.3398 180 11.25 455.25 11.25 455.25 11.3398 2425 11.25 2430.25 11.3398 2675 215 2860.38 435.25 2860.25H747.25V22.25"></path>
<path transform="matrix(.1,0,0,-.1,0,352)" d="M2496.25 2855.25V3275.25H1736.25V2855.25H2496.25" fill="#ffffff"></path>
<path transform="matrix(.1,0,0,-.1,0,352)" d="M3493.25 22.25H3805.25C4020 21.8203 4228.66 180 4228.25 455.25 4228.25 455.25 4228.66 2425 4228.25 2430.25 4228.66 2675 4025 2860.38 3805.25 2860.25H3493.25V22.25"></path></g></symbol>
  <symbol id="aiga-departing-flights" viewBox="0 0 48 48"><g transform="translate(-0.0009 0.2069) scale(0.1039)"><path transform="matrix(.1,0,0,-.1,0,458)" d="M4314.25 3894.25C4606.18 4186.16 4202.93 4567.3 3915.25 4279.25L2852.25 3216.25 417.25 3860.25 11.25 3454.25 2018.25 2397.25 1206.25 1585.25 575.25 1663.25 254.25 1342.25 970.25 965.25 1346.25 249.25 1667.25 570.25 1594.25 1198.25 2405.25 2009.25 3440.25 16.25 3846.25 421.25 3229.25 2807.25 4314.25 3894.25"></path></g></symbol>
  <symbol id="aiga-arriving-flights" viewBox="0 0 48 48"><g transform="translate(6.75 -0.012) scale(0.092)"><path transform="matrix(.1,0,0,-.1,0,522)" d="M1842.25 4232.25C2070.45 4232.5 2255.06 4417.11 2255.25 4645.25 2255.06 4872.57 2070.45 5057.2 1842.25 5057.25 1614.99 5057.2 1430.36 4872.57 1430.25 4645.25 1430.36 4417.11 1614.99 4232.5 1842.25 4232.25"></path>
<path transform="matrix(.1,0,0,-.1,0,522)" d="M3366.25 818.25H3545.25C3672.81 817.762 3738.06 918.109 3738.25 1010.25 3738.25 1010.25 3738.06 2020 3738.25 2025.25 3738.06 2116.89 3666.15 2218.42 3545.25 2218.25H3366.25V818.25"></path>
<path transform="matrix(.1,0,0,-.1,0,522)" d="M1350.25 4125.25 482.25 5014.25C290.371 5205.78 10.8086 4926.24 202.25 4734.25L1313.25 3604.25V337.25C1312.77 14.9414 1783.5 24.4219 1783.25 337.25V2218.25H1862.25V337.25C1862.41 24.25 2336.66 14.9414 2336.25 337.25V3480.25H2420.25V2410.25 2408.25 2218.25H2158.25V818.25H3270.25V2218.25H3007.25V2410.25C3007.22 2482.01 2964.09 2520.35 2887.25 2520.25 2887.25 2520.25 2842.46 2520.35 2766.25 2520.25H2765.25V3608.25C2765.48 3860 2550 4125.51 2265.25 4125.25H1350.25"></path>
<path transform="matrix(.1,0,0,-.1,0,522)" d="M2890.25 2218.25V2407.25H2531.25V2218.25H2890.25" fill="#ffffff"></path></g></symbol>
  <symbol id="aiga-smoking" viewBox="0 0 48 48"><g transform="translate(-0.0106 6.0598) scale(0.1084)"><path transform="matrix(.1,0,0,-.1,0,331)" d="M11.25 114.25V718.25H3786.25V114.25H11.25"></path>
<path transform="matrix(.1,0,0,-.1,0,331)" stroke-width="202.35" stroke-linecap="butt" stroke-linejoin="round" fill="none" stroke="currentColor" d="M2605.25 3130.25C2246.6 3130 2100.37 2840 2100.25 2616.25 2100.37 2361.25 2310.12 2086.68 2707.25 2110.25 2570.12 1876.68 2690.71 1497.5 3016.25 1497.25 3017.5 1497.5 3560.25 1497.25 3560.25 1497.25 3850 1497.5 4000.52 1343.34 4000.25 1105.25V828.25"></path>
<path transform="matrix(.1,0,0,-.1,0,331)" stroke-width="202.35" stroke-linecap="butt" stroke-linejoin="round" fill="none" stroke="currentColor" d="M2779.25 2933.25C3143.29 2933.04 3385 2680 3385.25 2370.25 3385 2250.18 3340 2105 3248.25 1979.25H3570.25C4037.04 1979.13 4315.64 1590 4315.25 1200.25V828.25"></path>
<path transform="matrix(.1,0,0,-.1,0,331)" stroke-width="202.35" stroke-linecap="butt" stroke-linejoin="round" fill="none" stroke="currentColor" d="M4000.25 728.25V117.25"></path>
<path transform="matrix(.1,0,0,-.1,0,331)" stroke-width="202.35" stroke-linecap="butt" stroke-linejoin="round" fill="none" stroke="currentColor" d="M4317.25 728.25V117.25"></path>
<path transform="matrix(.1,0,0,-.1,0,331)" d="M2792.25 2790.25V3291.25H2589.25V2790.25H2792.25" fill="#ffffff"></path></g></symbol>
  <symbol id="aiga-no-smoking" viewBox="0 0 48 48"><g transform="translate(-0.0006 0.0266) scale(0.0543)"><path transform="matrix(.1,0,0,-.1,0,883)" d="M2974.25 3962.25V4356.25H5434.25V3962.25H2974.25"></path>
<path transform="matrix(.1,0,0,-.1,0,883)" stroke-width="131.87" stroke-linecap="butt" stroke-linejoin="round" fill="none" stroke="currentColor" d="M4664.25 5927.25C4430.89 5927.31 4335.6 5738.32 4335.25 5592.25 4335.6 5426.33 4472.29 5247.39 4731.25 5262.25 4641.73 5110.54 4720.32 4863.43 4932.25 4863.25 4933.28 4863.43 5287.25 4863.25 5287.25 4863.25 5475.82 4863.43 5573.91 4762.96 5574.25 4607.25V4427.25"></path>
<path transform="matrix(.1,0,0,-.1,0,883)" stroke-width="131.87" stroke-linecap="butt" stroke-linejoin="round" fill="none" stroke="currentColor" d="M4778.25 5799.25C5015.26 5798.95 5172.78 5634.05 5173.25 5432.25 5172.78 5353.94 5143.45 5259.33 5084.25 5177.25H5293.25C5597.71 5177.3 5779.27 4923.71 5779.25 4669.25V4427.25"></path>
<path transform="matrix(.1,0,0,-.1,0,883)" stroke-width="131.87" stroke-linecap="butt" stroke-linejoin="round" fill="none" stroke="currentColor" d="M5574.25 4362.25V3964.25"></path>
<path transform="matrix(.1,0,0,-.1,0,883)" stroke-width="131.87" stroke-linecap="butt" stroke-linejoin="round" fill="none" stroke="currentColor" d="M5780.25 4362.25V3964.25"></path>
<path transform="matrix(.1,0,0,-.1,0,883)" d="M4786.25 5706.25V6032.25H4654.25V5706.25H4786.25" fill="#ffffff"></path>
<path transform="matrix(.1,0,0,-.1,0,883)" stroke-width="550" stroke-linecap="butt" stroke-miterlimit="10" stroke-linejoin="miter" fill="none" stroke="#ffffff" d="M5853.25 3005.25 3021.25 5837.25"></path>
<path transform="matrix(.1,0,0,-.1,0,883)" stroke-width="490" stroke-linecap="butt" stroke-miterlimit="10" stroke-linejoin="miter" fill="none" stroke="currentColor" d="M4420.25 2463.25C3341.83 2463.42 2467.53 3337.7 2467.25 4416.25 2467.53 5494.61 3341.83 6368.9 4420.25 6369.25 5498.74 6368.9 6373.03 5494.61 6373.25 4416.25 6373.03 3337.7 5498.74 2463.42 4420.25 2463.25Z"></path>
<path transform="matrix(.1,0,0,-.1,0,883)" stroke-width="511.2" stroke-linecap="butt" stroke-miterlimit="10" stroke-linejoin="miter" fill="none" stroke="currentColor" d="M5848.25 3008.25 3016.25 5840.25"></path></g></symbol>
  <symbol id="aiga-parking" viewBox="0 0 48 48"><g transform="translate(6.0624 0.0024) scale(0.1212)"><path transform="matrix(.1,0,0,-.1,0,396)" d="M19.25 3942.25H1685.25C2413.24 3941.94 2950 3290.17 2950.25 2619.25 2950 1865 2311.37 1301.5 1650.25 1301.25H776.25V12.25H19.25V3942.25"></path>
<path transform="matrix(.1,0,0,-.1,0,396)" d="M785.25 3213.25H1646.25C1924.41 3213.49 2205 2955.06 2205.25 2610.25 2205 2264.96 1943.58 2025.38 1637.25 2025.25H785.25V3213.25" fill="#ffffff"></path></g></symbol>
  <symbol id="aiga-no-parking" viewBox="0 0 48 48"><g transform="translate(-0.0006 -0.0006) scale(0.0543)"><path transform="matrix(.1,0,0,-.1,0,884)" d="M3659.25 5700.25H4747.25C5223.56 5699.92 5574.19 5274.15 5574.25 4836.25 5574.19 4343.16 5157.01 3975.06 4725.25 3975.25H4154.25V3133.25H3659.25V5700.25"></path>
<path transform="matrix(.1,0,0,-.1,0,884)" d="M4160.25 5224.25H4722.25C4904.23 5224.06 5087.52 5055.24 5087.25 4830.25 5087.52 4604.44 4916.75 4447.93 4716.25 4448.25H4160.25V5224.25" fill="#ffffff"></path>
<path transform="matrix(.1,0,0,-.1,0,884)" stroke-width="564.45" stroke-linecap="butt" stroke-miterlimit="10" stroke-linejoin="miter" fill="none" stroke="#ffffff" d="M5857.25 3006.25 3025.25 5839.25"></path>
<path transform="matrix(.1,0,0,-.1,0,884)" stroke-width="490" stroke-linecap="butt" stroke-miterlimit="10" stroke-linejoin="miter" fill="none" stroke="currentColor" d="M4420.25 2468.25C3341.54 2468.18 2467.24 3342.46 2467.25 4421.25 2467.24 5499.37 3341.54 6373.66 4420.25 6373.25 5498.45 6373.66 6372.74 5499.37 6372.25 4421.25 6372.74 3342.46 5498.45 2468.18 4420.25 2468.25Z"></path>
<path transform="matrix(.1,0,0,-.1,0,884)" stroke-width="517.57" stroke-linecap="butt" stroke-miterlimit="10" stroke-linejoin="miter" fill="none" stroke="currentColor" d="M5860.25 3004.25 3021.25 5842.25"></path></g></symbol>
  <symbol id="aiga-no-dogs" viewBox="0 0 48 48"><g transform="translate(-0.0176 -0.0176) scale(0.0544)"><path transform="matrix(.1,0,0,-.1,0,883)" d="M4719.25 3936.25H3797.25V3390.25C3796.86 3090 3341.57 3090 3341.25 3390.25V4583.25H3136.25C2843.86 4583.66 2841.2 4988.32 3130.25 4988.25H3496.25 4651.25L5352.25 5689.25V5332.25C5352.25 5332.25 5835.62 4848.65 5837.25 4847.25 5950 4730 5885 4586.86 5781.25 4587.25H5172.25L5170.25 3390.25C5170 3090 4718.99 3090 4719.25 3390.25V3936.25"></path>
<path transform="matrix(.1,0,0,-.1,0,883)" stroke-width="9.58" stroke-linecap="butt" stroke-miterlimit="10" stroke-linejoin="miter" fill="none" stroke="#ffffff" d="M4719.25 3936.25H3797.25V3390.25C3796.86 3090 3341.57 3090 3341.25 3390.25V4583.25H3136.25C2843.86 4583.66 2841.2 4988.32 3130.25 4988.25H3496.25 4651.25L5352.25 5689.25V5332.25C5352.25 5332.25 5835.62 4848.65 5837.25 4847.25 5950 4730 5885 4586.86 5781.25 4587.25H5172.25L5170.25 3390.25C5170 3090 4718.99 3090 4719.25 3390.25V3936.25"></path>
<path transform="matrix(.1,0,0,-.1,0,883)" stroke-width="564.45" stroke-linecap="butt" stroke-miterlimit="10" stroke-linejoin="miter" fill="none" stroke="#ffffff" d="M5852.25 3000.25 3020.25 5833.25"></path>
<path transform="matrix(.1,0,0,-.1,0,883)" stroke-width="490" stroke-linecap="butt" stroke-miterlimit="10" stroke-linejoin="miter" fill="none" stroke="currentColor" d="M4415.25 2462.25C3336.55 2462.26 2462.25 3336.54 2462.25 4415.25 2462.25 5493.45 3336.55 6367.74 4415.25 6367.25 5493.46 6367.74 6367.75 5493.45 6368.25 4415.25 6367.75 3336.54 5493.46 2462.26 4415.25 2462.25Z"></path>
<path transform="matrix(.1,0,0,-.1,0,883)" stroke-width="517.57" stroke-linecap="butt" stroke-miterlimit="10" stroke-linejoin="miter" fill="none" stroke="currentColor" d="M5855.25 2998.25 3016.25 5836.25"></path></g></symbol>
  <symbol id="aiga-no-entry" viewBox="0 0 48 48"><g transform="translate(-0.002 -0.002) scale(0.1091)"><path transform="matrix(.1,0,0,-.1,0,440)" d="M2197.25 17.25C3404.76 16.8516 4383.36 995.461 4383.25 2202.25 4383.36 3409.76 3404.76 4388.38 2197.25 4388.25 990.461 4388.38 11.8516 3409.76 12.25 2202.25 11.8516 995.461 990.461 16.8516 2197.25 17.25"></path>
<path transform="matrix(.1,0,0,-.1,0,440)" d="M3963.25 1845.25V2564.25H436.25V1845.25H3963.25" fill="#ffffff"></path>
<path transform="matrix(.1,0,0,-.1,0,440)" stroke-width="4.79" stroke-linecap="butt" stroke-miterlimit="10" stroke-linejoin="miter" fill="none" stroke="currentColor" d="M3963.25 1845.25V2564.25H436.25V1845.25H3963.25Z"></path></g></symbol>
  <symbol id="aiga-exit" viewBox="0 0 48 48"><g transform="translate(-0.0006 1.3569) scale(0.1086)"><path transform="matrix(.1,0,0,-.1,0,417)" d="M2583.25 4156.25C3620 4110.06 4410 3077.21 4410.25 2094.25 4410 1112.1 3615 90.0391 2583.25 14.25V4156.25"></path>
<path transform="matrix(.1,0,0,-.1,0,417)" d="M1836.25 4156.25C800 4110.06 10 3077.21 10.25 2094.25 10 1112.1 805 90.0391 1836.25 14.25V4156.25"></path></g></symbol>
  <symbol id="aiga-fire-extinguisher" viewBox="0 0 48 48"><g transform="translate(7.0806 -0.0099) scale(0.0978)"><path transform="matrix(.1,0,0,-.1,0,491)" d="M983.25 3890.25C825 3860 389.602 3603.42 389.25 3105.25V208.25C389.602 136.789 423.148 16.9688 567.25 17.25H1842.25C1986.46 16.9688 2020 136.789 2020.25 208.25V3105.25C2020 3603.42 1600 3860 1440.25 3890.25V4091.25H2023.25V3967.25L3450.25 3751.25V4730.25L2023.25 4522.25V4388.25H1443.25V4599.25H1276.25C1275.8 4730.2 1133.5 4898.26 931.25 4898.25 734.129 4898.26 555.738 4744.49 555.25 4512.25 555.738 4402.09 619.078 4303.55 675.25 4270.25 453.43 4188.13 156.289 3907.51 97.25 3736.25 16.1992 3573.62 239.98 3437.05 355.25 3600.25 470.02 3762.94 599.102 3962.9 982.25 4059.25L983.25 3890.25"></path>
<path transform="matrix(.1,0,0,-.1,0,491)" d="M926.25 4368.25C1017.06 4367.97 1091.03 4441.95 1091.25 4533.25 1091.03 4624.42 1017.06 4698.4 926.25 4698.25 834.578 4698.4 760.602 4624.42 760.25 4533.25 760.602 4441.95 834.578 4367.97 926.25 4368.25" fill="#ffffff"></path></g></symbol>
  <symbol id="aiga-litter-disposal" viewBox="0 0 48 48"><g transform="translate(6.5895 0.0069) scale(0.0954)"><path transform="matrix(.1,0,0,-.1,0,503)" d="M2697.25 4198.25C2922.68 4198.02 3105.52 4380.86 3105.25 4606.25 3105.52 4831.89 2922.68 5014.73 2697.25 5014.25 2471.66 5014.73 2288.84 4831.89 2289.25 4606.25 2288.84 4380.86 2471.66 4198.02 2697.25 4198.25"></path>
<path transform="matrix(.1,0,0,-.1,0,503)" d="M2172.25 3447.25 2175.25 330.25C2175 18.1602 2633.58 21.0117 2633.25 337.25L2634.25 2151.25H2723.25V338.25C2722.83 21.8711 3186.76 13.8789 3187.25 330.25V3460.25H3267.25V2342.25C3267.61 2074.24 3631.81 2074.24 3632.25 2338.25V3561.25C3631.81 3889.56 3387.12 4083.17 3128.25 4083.25H2402.25C2230 4083.17 2105 4015 2000.25 3865.25L1632.25 3329.25H995.25C738.559 3329.46 752.941 2966.06 990.25 2966.25H1725.25C1782.51 2966.06 1852.5 2987.5 1892.25 3047.25L2172.25 3447.25"></path>
<path transform="matrix(.1,0,0,-.1,0,503)" d="M974.25 1535.25V1834.25H675.25V1535.25H974.25"></path>
<path transform="matrix(.1,0,0,-.1,0,503)" d="M1136.25 2198.25 919.25 2415.25 701.25 2198.25 919.25 1980.25 1136.25 2198.25"></path>
<path transform="matrix(.1,0,0,-.1,0,503)" d="M933.25 2609.25 716.25 2826.25 498.25 2609.25 716.25 2391.25 933.25 2609.25"></path>
<path transform="matrix(.1,0,0,-.1,0,503)" d="M1385.25 99.25 1773.25 2160.25H1481.25L1141.25 386.25H637.25L305.25 2160.25H13.25L393.25 99.25H1385.25"></path></g></symbol>
  <symbol id="aiga-arrow-right" viewBox="0 0 48 48"><g transform="translate(-0.0002 3.8708) scale(0.1106)"><path transform="matrix(.1,0,0,-.1,0,364)" d="M2523.25 3619.25 4325.25 1817.25 2523.25 15.25H1335.25L2705.25 1386.25H12.25V2258.25H2696.25L1333.25 3621.25 2523.25 3619.25"></path></g></symbol>
  <symbol id="aiga-arrow-up-right" viewBox="0 0 48 48"><g transform="translate(0.0071 0.0771) scale(0.1399)"><path transform="matrix(.1,0,0,-.1,0,342)" d="M862.25 3400.25H3411.25V852.25L2570.25 11.25V1950.25L666.25 45.25 49.25 662.25 1947.25 2560.25H19.25L862.25 3400.25"></path></g></symbol>
  <symbol id="aiga-arrow-up" viewBox="0 0 48 48"><g transform="translate(3.9261 -0.0002) scale(0.1106)"><path transform="matrix(.1,0,0,-.1,0,434)" d="M12.25 2523.25 1814.25 4325.25 3616.25 2523.25V1334.25L2246.25 2705.25V11.25H1373.25V2695.25L10.25 1332.25 12.25 2523.25"></path></g></symbol>
  <symbol id="aiga-arrow-up-left" viewBox="0 0 48 48"><g transform="translate(-0.0084 -0.0084) scale(0.1404)"><path transform="matrix(.1,0,0,-.1,0,342)" d="M13.25 859.25V3407.25H2561.25L3402.25 2567.25H1464.25L3368.25 662.25 2751.25 45.25 854.25 1943.25V15.25L13.25 859.25"></path></g></symbol>
  <symbol id="aiga-arrow-left" viewBox="0 0 48 48"><g transform="translate(-0.0002 3.8708) scale(0.1106)"><path transform="matrix(.1,0,0,-.1,0,364)" d="M1817.25 20.25 15.25 1822.25 1817.25 3624.25H3005.25L1635.25 2253.25H4328.25V1381.25H1644.25L3008.25 18.25 1817.25 20.25"></path></g></symbol>
  <symbol id="aiga-arrow-down-left" viewBox="0 0 48 48"><g transform="translate(-0.0084 -0.0084) scale(0.1404)"><path transform="matrix(.1,0,0,-.1,0,342)" d="M2560.25 18.25H11.25V2566.25L852.25 3407.25V1468.25L2756.25 3373.25 3373.25 2756.25 1475.25 858.25H3403.25L2560.25 18.25"></path></g></symbol>
  <symbol id="aiga-arrow-down" viewBox="0 0 48 48"><g transform="translate(3.9254 0.0098) scale(0.1103)"><path transform="matrix(.1,0,0,-.1,0,435)" d="M3621.25 1819.25 1819.25 17.25 17.25 1819.25V3008.25L1388.25 1637.25V4331.25H2260.25V1647.25L3623.25 3010.25 3621.25 1819.25"></path></g></symbol>
  <symbol id="aiga-arrow-down-right" viewBox="0 0 48 48"><g transform="translate(0.0771 0.0071) scale(0.1399)"><path transform="matrix(.1,0,0,-.1,0,343)" d="M3400.25 2567.25V19.25H851.25L11.25 859.25 1949.25 860.25 45.25 2764.25 662.25 3381.25 2559.25 1483.25V3411.25L3400.25 2567.25"></path></g></symbol>
</svg>
